<svg width="1920" height="1080" viewBox="0 0 1920 1080" fill="none" xmlns="http://www.w3.org/2000/svg">
<rect width="1920" height="1080" fill="#0B0B09"/>
<path d="M173.571 340H204.971L218.971 440.2H219.371L233.371 340H264.771V480H243.971V374H243.571L227.571 480H209.171L193.171 374H192.771V480H173.571V340ZM312.988 482C302.188 482 293.922 478.933 288.188 472.8C282.455 466.667 279.588 458 279.588 446.8V373.2C279.588 362 282.455 353.333 288.188 347.2C293.922 341.067 302.188 338 312.988 338C323.788 338 332.055 341.067 337.788 347.2C343.522 353.333 346.388 362 346.388 373.2V446.8C346.388 458 343.522 466.667 337.788 472.8C332.055 478.933 323.788 482 312.988 482ZM312.988 462C320.588 462 324.388 457.4 324.388 448.2V371.8C324.388 362.6 320.588 358 312.988 358C305.388 358 301.588 362.6 301.588 371.8V448.2C301.588 457.4 305.388 462 312.988 462ZM361.266 340H393.866C405.2 340 413.466 342.667 418.666 348C423.866 353.2 426.466 361.267 426.466 372.2V380.8C426.466 395.333 421.666 404.533 412.066 408.4V408.8C417.4 410.4 421.133 413.667 423.266 418.6C425.533 423.533 426.666 430.133 426.666 438.4V463C426.666 467 426.8 470.267 427.066 472.8C427.333 475.2 428 477.6 429.066 480H406.666C405.866 477.733 405.333 475.6 405.066 473.6C404.8 471.6 404.666 468 404.666 462.8V437.2C404.666 430.8 403.6 426.333 401.466 423.8C399.466 421.267 395.933 420 390.866 420H383.266V480H361.266V340ZM391.266 400C395.666 400 398.933 398.867 401.066 396.6C403.333 394.333 404.466 390.533 404.466 385.2V374.4C404.466 369.333 403.533 365.667 401.666 363.4C399.933 361.133 397.133 360 393.266 360H383.266V400H391.266ZM441.93 340H474.33C485.264 340 493.464 342.933 498.93 348.8C504.397 354.667 507.13 363.267 507.13 374.6V388.4C507.13 399.733 504.397 408.333 498.93 414.2C493.464 420.067 485.264 423 474.33 423H463.93V480H441.93V340ZM474.33 403C477.93 403 480.597 402 482.33 400C484.197 398 485.13 394.6 485.13 389.8V373.2C485.13 368.4 484.197 365 482.33 363C480.597 361 477.93 360 474.33 360H463.93V403H474.33ZM519.079 340H541.079V397H564.679V340H586.679V480H564.679V417H541.079V480H519.079V340ZM603.063 340H625.063V480H603.063V340ZM641.54 340H669.14L690.54 423.8H690.94V340H710.54V480H687.94L661.54 377.8H661.14V480H641.54V340ZM758.091 482C747.425 482 739.291 479 733.691 473C728.091 466.867 725.291 458.133 725.291 446.8V373.2C725.291 361.867 728.091 353.2 733.691 347.2C739.291 341.067 747.425 338 758.091 338C768.758 338 776.891 341.067 782.491 347.2C788.091 353.2 790.891 361.867 790.891 373.2V385.2H770.091V371.8C770.091 362.6 766.291 358 758.691 358C751.091 358 747.291 362.6 747.291 371.8V448.4C747.291 457.467 751.091 462 758.691 462C766.291 462 770.091 457.467 770.091 448.4V421H759.091V401H790.891V446.8C790.891 458.133 788.091 466.867 782.491 473C776.891 479 768.758 482 758.091 482ZM854.048 340H883.848L906.648 480H884.648L880.648 452.2V452.6H855.648L851.648 480H831.248L854.048 340ZM878.048 433.6L868.248 364.4H867.848L858.248 433.6H878.048ZM917.321 340H939.321V480H917.321V340ZM955.798 340H988.398C999.731 340 1008 342.667 1013.2 348C1018.4 353.2 1021 361.267 1021 372.2V380.8C1021 395.333 1016.2 404.533 1006.6 408.4V408.8C1011.93 410.4 1015.66 413.667 1017.8 418.6C1020.06 423.533 1021.2 430.133 1021.2 438.4V463C1021.2 467 1021.33 470.267 1021.6 472.8C1021.86 475.2 1022.53 477.6 1023.6 480H1001.2C1000.4 477.733 999.864 475.6 999.598 473.6C999.331 471.6 999.198 468 999.198 462.8V437.2C999.198 430.8 998.131 426.333 995.998 423.8C993.998 421.267 990.464 420 985.398 420H977.798V480H955.798V340ZM985.798 400C990.198 400 993.464 398.867 995.598 396.6C997.864 394.333 998.998 390.533 998.998 385.2V374.4C998.998 369.333 998.064 365.667 996.198 363.4C994.464 361.133 991.664 360 987.798 360H977.798V400H985.798ZM1067.46 482C1056.93 482 1048.86 479 1043.26 473C1037.8 467 1035.06 458.533 1035.06 447.6V372.4C1035.06 361.467 1037.8 353 1043.26 347C1048.86 341 1056.93 338 1067.46 338C1078 338 1086 341 1091.46 347C1097.06 353 1099.86 361.467 1099.86 372.4V387.2H1079.06V371C1079.06 362.333 1075.4 358 1068.06 358C1060.73 358 1057.06 362.333 1057.06 371V449.2C1057.06 457.733 1060.73 462 1068.06 462C1075.4 462 1079.06 457.733 1079.06 449.2V427.8H1099.86V447.6C1099.86 458.533 1097.06 467 1091.46 473C1086 479 1078 482 1067.46 482ZM1113.02 340H1145.62C1156.96 340 1165.22 342.667 1170.42 348C1175.62 353.2 1178.22 361.267 1178.22 372.2V380.8C1178.22 395.333 1173.42 404.533 1163.82 408.4V408.8C1169.16 410.4 1172.89 413.667 1175.02 418.6C1177.29 423.533 1178.42 430.133 1178.42 438.4V463C1178.42 467 1178.56 470.267 1178.82 472.8C1179.09 475.2 1179.76 477.6 1180.82 480H1158.42C1157.62 477.733 1157.09 475.6 1156.82 473.6C1156.56 471.6 1156.42 468 1156.42 462.8V437.2C1156.42 430.8 1155.36 426.333 1153.22 423.8C1151.22 421.267 1147.69 420 1142.62 420H1135.02V480H1113.02V340ZM1143.02 400C1147.42 400 1150.69 398.867 1152.82 396.6C1155.09 394.333 1156.22 390.533 1156.22 385.2V374.4C1156.22 369.333 1155.29 365.667 1153.42 363.4C1151.69 361.133 1148.89 360 1145.02 360H1135.02V400H1143.02ZM1210.69 340H1240.49L1263.29 480H1241.29L1237.29 452.2V452.6H1212.29L1208.29 480H1187.89L1210.69 340ZM1234.69 433.6L1224.89 364.4H1224.49L1214.89 433.6H1234.69ZM1273.96 340H1332.16V360H1295.96V399H1324.36V419H1295.96V480H1273.96V340ZM1361.86 360H1338.86V340H1406.86V360H1383.86V480H1361.86V360ZM1444.35 340H1465.55L1475.35 447.6H1475.75L1486.15 340H1510.15L1520.55 447.6H1520.95L1530.75 340H1549.75L1535.55 480H1508.15L1498.15 385.6H1497.75L1487.75 480H1458.55L1444.35 340ZM1560.88 340H1582.88V480H1560.88V340ZM1599.35 340H1626.95L1648.35 423.8H1648.75V340H1668.35V480H1645.75L1619.35 377.8H1618.95V480H1599.35V340ZM1715.9 482C1705.24 482 1697.1 479 1691.5 473C1685.9 466.867 1683.1 458.133 1683.1 446.8V373.2C1683.1 361.867 1685.9 353.2 1691.5 347.2C1697.1 341.067 1705.24 338 1715.9 338C1726.57 338 1734.7 341.067 1740.3 347.2C1745.9 353.2 1748.7 361.867 1748.7 373.2V385.2H1727.9V371.8C1727.9 362.6 1724.1 358 1716.5 358C1708.9 358 1705.1 362.6 1705.1 371.8V448.4C1705.1 457.467 1708.9 462 1716.5 462C1724.1 462 1727.9 457.467 1727.9 448.4V421H1716.9V401H1748.7V446.8C1748.7 458.133 1745.9 466.867 1740.3 473C1734.7 479 1726.57 482 1715.9 482ZM466.833 580H500.433C511.366 580 519.566 582.933 525.033 588.8C530.499 594.667 533.233 603.267 533.233 614.6V685.4C533.233 696.733 530.499 705.333 525.033 711.2C519.566 717.067 511.366 720 500.433 720H466.833V580ZM500.033 700C503.633 700 506.366 698.933 508.233 696.8C510.233 694.667 511.233 691.2 511.233 686.4V613.6C511.233 608.8 510.233 605.333 508.233 603.2C506.366 601.067 503.633 600 500.033 600H488.833V700H500.033ZM548.083 580H608.083V600H570.083V637H600.283V657H570.083V700H608.083V720H548.083V580ZM620.739 580H652.139L666.139 680.2H666.539L680.539 580H711.939V720H691.139V614H690.739L674.739 720H656.339L640.339 614H639.939V720H620.739V580ZM760.156 722C749.356 722 741.09 718.933 735.356 712.8C729.623 706.667 726.756 698 726.756 686.8V613.2C726.756 602 729.623 593.333 735.356 587.2C741.09 581.067 749.356 578 760.156 578C770.956 578 779.223 581.067 784.956 587.2C790.69 593.333 793.556 602 793.556 613.2V686.8C793.556 698 790.69 706.667 784.956 712.8C779.223 718.933 770.956 722 760.156 722ZM760.156 702C767.756 702 771.556 697.4 771.556 688.2V611.8C771.556 602.6 767.756 598 760.156 598C752.556 598 748.756 602.6 748.756 611.8V688.2C748.756 697.4 752.556 702 760.156 702ZM808.434 580H836.034L857.434 663.8H857.834V580H877.434V720H854.834L828.434 617.8H828.034V720H808.434V580ZM922.386 722C911.719 722 903.653 719 898.186 713C892.719 706.867 889.986 698.133 889.986 686.8V678.8H910.786V688.4C910.786 697.467 914.586 702 922.186 702C925.919 702 928.719 700.933 930.586 698.8C932.586 696.533 933.586 692.933 933.586 688C933.586 682.133 932.253 677 929.586 672.6C926.919 668.067 921.986 662.667 914.786 656.4C905.719 648.4 899.386 641.2 895.786 634.8C892.186 628.267 890.386 620.933 890.386 612.8C890.386 601.733 893.186 593.2 898.786 587.2C904.386 581.067 912.519 578 923.186 578C933.719 578 941.653 581.067 946.986 587.2C952.453 593.2 955.186 601.867 955.186 613.2V619H934.386V611.8C934.386 607 933.453 603.533 931.586 601.4C929.719 599.133 926.986 598 923.386 598C916.053 598 912.386 602.467 912.386 611.4C912.386 616.467 913.719 621.2 916.386 625.6C919.186 630 924.186 635.333 931.386 641.6C940.586 649.6 946.919 656.867 950.386 663.4C953.853 669.933 955.586 677.6 955.586 686.4C955.586 697.867 952.719 706.667 946.986 712.8C941.386 718.933 933.186 722 922.386 722ZM985.4 600H962.4V580H1030.4V600H1007.4V720H985.4V600ZM1041.05 580H1073.65C1084.98 580 1093.25 582.667 1098.45 588C1103.65 593.2 1106.25 601.267 1106.25 612.2V620.8C1106.25 635.333 1101.45 644.533 1091.85 648.4V648.8C1097.18 650.4 1100.92 653.667 1103.05 658.6C1105.32 663.533 1106.45 670.133 1106.45 678.4V703C1106.45 707 1106.58 710.267 1106.85 712.8C1107.12 715.2 1107.78 717.6 1108.85 720H1086.45C1085.65 717.733 1085.12 715.6 1084.85 713.6C1084.58 711.6 1084.45 708 1084.45 702.8V677.2C1084.45 670.8 1083.38 666.333 1081.25 663.8C1079.25 661.267 1075.72 660 1070.65 660H1063.05V720H1041.05V580ZM1071.05 640C1075.45 640 1078.72 638.867 1080.85 636.6C1083.12 634.333 1084.25 630.533 1084.25 625.2V614.4C1084.25 609.333 1083.32 605.667 1081.45 603.4C1079.72 601.133 1076.92 600 1073.05 600H1063.05V640H1071.05ZM1138.72 580H1168.52L1191.32 720H1169.32L1165.32 692.2V692.6H1140.32L1136.32 720H1115.92L1138.72 580ZM1162.72 673.6L1152.92 604.4H1152.52L1142.92 673.6H1162.72ZM1210.01 600H1187.01V580H1255.01V600H1232.01V720H1210.01V600ZM1265.66 580H1287.66V720H1265.66V580ZM1335.94 722C1325.14 722 1316.87 718.933 1311.14 712.8C1305.4 706.667 1302.54 698 1302.54 686.8V613.2C1302.54 602 1305.4 593.333 1311.14 587.2C1316.87 581.067 1325.14 578 1335.94 578C1346.74 578 1355 581.067 1360.74 587.2C1366.47 593.333 1369.34 602 1369.34 613.2V686.8C1369.34 698 1366.47 706.667 1360.74 712.8C1355 718.933 1346.74 722 1335.94 722ZM1335.94 702C1343.54 702 1347.34 697.4 1347.34 688.2V611.8C1347.34 602.6 1343.54 598 1335.94 598C1328.34 598 1324.54 602.6 1324.54 611.8V688.2C1324.54 697.4 1328.34 702 1335.94 702ZM1384.22 580H1411.82L1433.22 663.8H1433.62V580H1453.22V720H1430.62L1404.22 617.8H1403.82V720H1384.22V580Z" fill="#FAFAFA"/>
</svg>
