<svg width="1920" height="1080" viewBox="0 0 1920 1080" fill="none" xmlns="http://www.w3.org/2000/svg">
<rect width="1920" height="1080" fill="#191919"/>
<rect opacity="0.67" width="1920" height="150" fill="#191919"/>
<path d="M1321.85 69.65V61.2C1321.85 60.6667 1321.75 60.3167 1321.55 60.15C1321.39 59.95 1321.02 59.85 1320.45 59.85H1311.85V55.45H1322.15C1324.09 55.45 1325.47 55.8833 1326.3 56.75C1327.17 57.6167 1327.6 58.8333 1327.6 60.4V70.45C1327.6 72.0167 1327.17 73.2333 1326.3 74.1C1325.47 74.9667 1324.09 75.4 1322.15 75.4H1313V71H1320.45C1321.02 71 1321.39 70.9 1321.55 70.7C1321.75 70.5 1321.85 70.15 1321.85 69.65ZM1310.55 55.45H1316.3V87H1310.55V55.45ZM1342.61 69.1V61.2C1342.61 60.6667 1342.51 60.3167 1342.31 60.15C1342.14 59.95 1341.77 59.85 1341.21 59.85H1332.61V55.45H1342.91C1344.84 55.45 1346.22 55.8833 1347.06 56.75C1347.92 57.6167 1348.36 58.8333 1348.36 60.4V69.75C1348.36 71.3167 1347.92 72.5333 1347.06 73.4C1346.22 74.2667 1344.84 74.7 1342.91 74.7H1333.76V70.45H1341.21C1341.77 70.45 1342.14 70.35 1342.31 70.15C1342.51 69.95 1342.61 69.6 1342.61 69.1ZM1331.31 55.45H1337.06V87H1331.31V55.45ZM1338.06 72.45H1343.81L1349.96 87H1343.76L1338.06 72.45ZM1363.84 74.85V61.2C1363.84 60.6667 1363.74 60.3167 1363.54 60.15C1363.37 59.95 1363.01 59.85 1362.44 59.85H1360.74V55.45H1364.14C1366.07 55.45 1367.46 55.8833 1368.29 56.75C1369.16 57.6167 1369.59 58.8333 1369.59 60.4V74.85H1363.84ZM1363.84 81.25V73.15H1369.59V82.05C1369.59 83.6167 1369.16 84.8333 1368.29 85.7C1367.46 86.5667 1366.07 87 1364.14 87H1360.54V82.6H1362.44C1363.01 82.6 1363.37 82.5 1363.54 82.3C1363.74 82.1 1363.84 81.75 1363.84 81.25ZM1358.34 61.2V74.85H1352.59V60.4C1352.59 58.8333 1353.02 57.6167 1353.89 56.75C1354.76 55.8833 1356.14 55.45 1358.04 55.45H1361.44V59.85H1359.79C1359.22 59.85 1358.84 59.95 1358.64 60.15C1358.44 60.3167 1358.34 60.6667 1358.34 61.2ZM1358.34 72.9V81.25C1358.34 81.75 1358.44 82.1 1358.64 82.3C1358.84 82.5 1359.22 82.6 1359.79 82.6H1361.39V87H1358.04C1356.14 87 1354.76 86.5667 1353.89 85.7C1353.02 84.8333 1352.59 83.6167 1352.59 82.05V72.9H1358.34ZM1372.48 75.95H1378.23V81.25C1378.23 81.75 1378.33 82.1 1378.53 82.3C1378.73 82.5 1379.11 82.6 1379.68 82.6H1380.88C1381.44 82.6 1381.81 82.5 1381.98 82.3C1382.18 82.1 1382.28 81.75 1382.28 81.25V55.45H1388.08V82.05C1388.08 83.6167 1387.64 84.8333 1386.78 85.7C1385.91 86.5667 1384.53 87 1382.63 87H1377.93C1375.99 87 1374.59 86.5667 1373.73 85.7C1372.89 84.8333 1372.48 83.6167 1372.48 82.05V75.95ZM1392.73 55.45H1398.53V87H1392.73V55.45ZM1406.28 68.6V73.05H1395.63V68.6H1406.28ZM1407.73 55.45V59.85H1395.33V55.45H1407.73ZM1408.13 82.6V87H1395.33V82.6H1408.13ZM1416.98 61V81.5C1416.98 82 1417.08 82.35 1417.28 82.55C1417.48 82.75 1417.85 82.85 1418.38 82.85H1419.78V87.05H1416.63C1414.73 87.05 1413.35 86.6167 1412.48 85.75C1411.62 84.8833 1411.18 83.6667 1411.18 82.1V60.4C1411.18 58.8333 1411.62 57.6167 1412.48 56.75C1413.35 55.8833 1414.73 55.45 1416.63 55.45H1419.98V59.65H1418.38C1417.85 59.65 1417.48 59.75 1417.28 59.95C1417.08 60.1167 1416.98 60.4667 1416.98 61ZM1422.13 65.9V61C1422.13 60.4667 1422.03 60.1167 1421.83 59.95C1421.67 59.75 1421.3 59.65 1420.73 59.65H1419.18V55.45H1422.48C1424.38 55.45 1425.77 55.8833 1426.63 56.75C1427.5 57.6167 1427.93 58.8333 1427.93 60.4V65.9H1422.13ZM1422.13 81.5V76.7H1427.93V82.1C1427.93 83.6667 1427.5 84.8833 1426.63 85.75C1425.77 86.6167 1424.38 87.05 1422.48 87.05H1419.18V82.85H1420.73C1421.3 82.85 1421.67 82.75 1421.83 82.55C1422.03 82.35 1422.13 82 1422.13 81.5ZM1435.34 56.8H1441.09V87H1435.34V56.8ZM1446.64 55.45V59.85H1429.84V55.45H1446.64ZM1459.28 81.25V74.5C1459.28 73.9667 1459.18 73.6167 1458.98 73.45C1458.78 73.25 1458.41 73.15 1457.88 73.15H1453.83C1451.96 73.15 1450.63 72.7167 1449.83 71.85C1449.06 70.95 1448.68 69.7167 1448.68 68.15V60.4C1448.68 58.8333 1449.09 57.6167 1449.93 56.75C1450.76 55.8833 1452.14 55.45 1454.08 55.45H1459.58C1461.48 55.45 1462.84 55.8833 1463.68 56.75C1464.54 57.6167 1464.98 58.8333 1464.98 60.4V64.8H1459.18V61.2C1459.18 60.6667 1459.08 60.3167 1458.88 60.15C1458.71 59.95 1458.34 59.85 1457.78 59.85H1455.88C1455.31 59.85 1454.93 59.95 1454.73 60.15C1454.53 60.3167 1454.43 60.6667 1454.43 61.2V67.55C1454.43 68.05 1454.53 68.4 1454.73 68.6C1454.93 68.8 1455.31 68.9 1455.88 68.9H1459.83C1461.73 68.9 1463.08 69.3333 1463.88 70.2C1464.68 71.0333 1465.08 72.2333 1465.08 73.8V82.05C1465.08 83.6167 1464.64 84.8333 1463.78 85.7C1462.94 86.5667 1461.56 87 1459.63 87H1454.22C1452.29 87 1450.89 86.5667 1450.03 85.7C1449.19 84.8333 1448.78 83.6167 1448.78 82.05V77.7H1454.53V81.25C1454.53 81.75 1454.63 82.1 1454.83 82.3C1455.03 82.5 1455.41 82.6 1455.98 82.6H1457.88C1458.41 82.6 1458.78 82.5 1458.98 82.3C1459.18 82.1 1459.28 81.75 1459.28 81.25Z" fill="white"/>
<path d="M1524.98 61V81.5C1524.98 82 1525.08 82.35 1525.28 82.55C1525.48 82.75 1525.85 82.85 1526.38 82.85H1527.78V87.05H1524.63C1522.73 87.05 1521.35 86.6167 1520.48 85.75C1519.61 84.8833 1519.18 83.6667 1519.18 82.1V60.4C1519.18 58.8333 1519.61 57.6167 1520.48 56.75C1521.35 55.8833 1522.73 55.45 1524.63 55.45H1527.98V59.65H1526.38C1525.85 59.65 1525.48 59.75 1525.28 59.95C1525.08 60.1167 1524.98 60.4667 1524.98 61ZM1530.13 65.9V61C1530.13 60.4667 1530.03 60.1167 1529.83 59.95C1529.66 59.75 1529.3 59.65 1528.73 59.65H1527.18V55.45H1530.48C1532.38 55.45 1533.76 55.8833 1534.63 56.75C1535.5 57.6167 1535.93 58.8333 1535.93 60.4V65.9H1530.13ZM1530.13 81.5V76.7H1535.93V82.1C1535.93 83.6667 1535.5 84.8833 1534.63 85.75C1533.76 86.6167 1532.38 87.05 1530.48 87.05H1527.18V82.85H1528.73C1529.3 82.85 1529.66 82.75 1529.83 82.55C1530.03 82.35 1530.13 82 1530.13 81.5ZM1551.04 74.85V61.2C1551.04 60.6667 1550.94 60.3167 1550.74 60.15C1550.57 59.95 1550.2 59.85 1549.64 59.85H1547.94V55.45H1551.34C1553.27 55.45 1554.65 55.8833 1555.49 56.75C1556.35 57.6167 1556.79 58.8333 1556.79 60.4V74.85H1551.04ZM1551.04 81.25V73.15H1556.79V82.05C1556.79 83.6167 1556.35 84.8333 1555.49 85.7C1554.65 86.5667 1553.27 87 1551.34 87H1547.74V82.6H1549.64C1550.2 82.6 1550.57 82.5 1550.74 82.3C1550.94 82.1 1551.04 81.75 1551.04 81.25ZM1545.54 61.2V74.85H1539.79V60.4C1539.79 58.8333 1540.22 57.6167 1541.09 56.75C1541.95 55.8833 1543.34 55.45 1545.24 55.45H1548.64V59.85H1546.99C1546.42 59.85 1546.04 59.95 1545.84 60.15C1545.64 60.3167 1545.54 60.6667 1545.54 61.2ZM1545.54 72.9V81.25C1545.54 81.75 1545.64 82.1 1545.84 82.3C1546.04 82.5 1546.42 82.6 1546.99 82.6H1548.59V87H1545.24C1543.34 87 1541.95 86.5667 1541.09 85.7C1540.22 84.8333 1539.79 83.6167 1539.79 82.05V72.9H1545.54ZM1573.62 55.45H1578.87V87H1573.47L1566.72 66.1V87H1561.42V55.45H1566.97L1573.62 76.05V55.45ZM1587.09 56.8H1592.84V87H1587.09V56.8ZM1598.39 55.45V59.85H1581.59V55.45H1598.39ZM1615.32 76.1V80.45H1603.42V76.1H1615.32ZM1619.77 87H1613.97L1609.22 61L1604.77 87H1599.02L1605.37 55.45H1613.12L1619.77 87ZM1628.11 61V81.5C1628.11 82 1628.21 82.35 1628.41 82.55C1628.61 82.75 1628.97 82.85 1629.51 82.85H1630.91V87.05H1627.76C1625.86 87.05 1624.47 86.6167 1623.61 85.75C1622.74 84.8833 1622.31 83.6667 1622.31 82.1V60.4C1622.31 58.8333 1622.74 57.6167 1623.61 56.75C1624.47 55.8833 1625.86 55.45 1627.76 55.45H1631.11V59.65H1629.51C1628.97 59.65 1628.61 59.75 1628.41 59.95C1628.21 60.1167 1628.11 60.4667 1628.11 61ZM1633.26 65.9V61C1633.26 60.4667 1633.16 60.1167 1632.96 59.95C1632.79 59.75 1632.42 59.65 1631.86 59.65H1630.31V55.45H1633.61C1635.51 55.45 1636.89 55.8833 1637.76 56.75C1638.62 57.6167 1639.06 58.8333 1639.06 60.4V65.9H1633.26ZM1633.26 81.5V76.7H1639.06V82.1C1639.06 83.6667 1638.62 84.8833 1637.76 85.75C1636.89 86.6167 1635.51 87.05 1633.61 87.05H1630.31V82.85H1631.86C1632.42 82.85 1632.79 82.75 1632.96 82.55C1633.16 82.35 1633.26 82 1633.26 81.5ZM1646.46 56.8H1652.21V87H1646.46V56.8ZM1657.76 55.45V59.85H1640.96V55.45H1657.76ZM1670.4 81.25V74.5C1670.4 73.9667 1670.3 73.6167 1670.1 73.45C1669.9 73.25 1669.53 73.15 1669 73.15H1664.95C1663.08 73.15 1661.75 72.7167 1660.95 71.85C1660.18 70.95 1659.8 69.7167 1659.8 68.15V60.4C1659.8 58.8333 1660.21 57.6167 1661.05 56.75C1661.88 55.8833 1663.26 55.45 1665.2 55.45H1670.7C1672.6 55.45 1673.96 55.8833 1674.8 56.75C1675.66 57.6167 1676.1 58.8333 1676.1 60.4V64.8H1670.3V61.2C1670.3 60.6667 1670.2 60.3167 1670 60.15C1669.83 59.95 1669.46 59.85 1668.9 59.85H1667C1666.43 59.85 1666.05 59.95 1665.85 60.15C1665.65 60.3167 1665.55 60.6667 1665.55 61.2V67.55C1665.55 68.05 1665.65 68.4 1665.85 68.6C1666.05 68.8 1666.43 68.9 1667 68.9H1670.95C1672.85 68.9 1674.2 69.3333 1675 70.2C1675.8 71.0333 1676.2 72.2333 1676.2 73.8V82.05C1676.2 83.6167 1675.76 84.8333 1674.9 85.7C1674.06 86.5667 1672.68 87 1670.75 87H1665.35C1663.41 87 1662.01 86.5667 1661.15 85.7C1660.31 84.8333 1659.9 83.6167 1659.9 82.05V77.7H1665.65V81.25C1665.65 81.75 1665.75 82.1 1665.95 82.3C1666.15 82.5 1666.53 82.6 1667.1 82.6H1669C1669.53 82.6 1669.9 82.5 1670.1 82.3C1670.3 82.1 1670.4 81.75 1670.4 81.25Z" fill="white"/>
<path d="M373.021 81.71V75.34C373.021 74.8267 372.881 74.4533 372.601 74.22C372.321 73.94 371.878 73.8 371.271 73.8H364.551C360.911 73.8 358.414 72.9833 357.061 71.35C355.754 69.7167 355.101 67.5933 355.101 64.98V55.74C355.101 53.1267 355.871 51.0267 357.411 49.44C358.951 47.8533 361.588 47.06 365.321 47.06H374.911C378.644 47.06 381.281 47.8533 382.821 49.44C384.361 51.0267 385.131 53.1267 385.131 55.74V61.13H372.881V57.35C372.881 56.8367 372.741 56.4633 372.461 56.23C372.181 55.95 371.738 55.81 371.131 55.81H369.101C368.494 55.81 368.051 55.95 367.771 56.23C367.491 56.4633 367.351 56.8367 367.351 57.35V64C367.351 64.5133 367.491 64.91 367.771 65.19C368.051 65.4233 368.494 65.54 369.101 65.54H375.681C379.321 65.54 381.818 66.31 383.171 67.85C384.571 69.39 385.271 71.4667 385.271 74.08V83.32C385.271 85.9333 384.501 88.0333 382.961 89.62C381.421 91.2067 378.784 92 375.051 92H365.531C361.798 92 359.138 91.2067 357.551 89.62C356.011 88.0333 355.241 85.9333 355.241 83.32V77.93H367.491V81.71C367.491 82.2233 367.631 82.62 367.911 82.9C368.191 83.1333 368.634 83.25 369.241 83.25H371.271C371.878 83.25 372.321 83.1333 372.601 82.9C372.881 82.62 373.021 82.2233 373.021 81.71ZM390.186 47.06H402.436V92H390.186V47.06ZM414.188 51.26H426.438V92H414.188V51.26ZM435.118 47.06V55.81H405.578V47.06H435.118ZM460.642 65.47V74.22H448.042V65.47H460.642ZM438.242 47.06H450.282V92H438.242V47.06ZM459.102 47.06H471.142V92H459.102V47.06ZM495.419 81.71V47.06H507.669V83.32C507.669 85.9333 506.875 88.0333 505.289 89.62C503.749 91.2067 501.112 92 497.379 92H491.359V83.25H493.669C494.275 83.25 494.719 83.1333 494.999 82.9C495.279 82.62 495.419 82.2233 495.419 81.71ZM488.979 47.06V81.71C488.979 82.2233 489.119 82.62 489.399 82.9C489.679 83.1333 490.122 83.25 490.729 83.25H493.039V92H487.019C483.285 92 480.625 91.2067 479.039 89.62C477.499 88.0333 476.729 85.9333 476.729 83.32V47.06H488.979ZM513.301 47.06H525.551V92H513.301V47.06ZM517.361 92V83.25H539.481V92H517.361ZM569.795 76.6V85.28H547.325V76.6H569.795ZM577.495 92H565.175L558.455 60.43L551.525 92H539.485L551.035 47.06H565.945L577.495 92ZM606.207 56.65V82.41C606.207 82.9233 606.347 83.32 606.627 83.6C606.907 83.8333 607.35 83.95 607.957 83.95H609.567V92H604.247C600.514 92 597.854 91.2067 596.267 89.62C594.727 88.0333 593.957 85.9333 593.957 83.32V55.74C593.957 53.1267 594.727 51.0267 596.267 49.44C597.854 47.8533 600.514 47.06 604.247 47.06H609.847V55.11H607.957C607.35 55.11 606.907 55.25 606.627 55.53C606.347 55.7633 606.207 56.1367 606.207 56.65ZM624.477 67.15V74.92H608.727V67.15H624.477ZM612.227 62.46V56.65C612.227 56.1367 612.087 55.7633 611.807 55.53C611.527 55.25 611.084 55.11 610.477 55.11H608.587V47.06H614.187C617.92 47.06 620.557 47.8533 622.097 49.44C623.684 51.0267 624.477 53.1267 624.477 55.74V62.46H612.227ZM612.227 82.41V72.54H624.477V83.32C624.477 85.9333 623.684 88.0333 622.097 89.62C620.557 91.2067 617.92 92 614.187 92H608.867V83.95H610.477C611.084 83.95 611.527 83.8333 611.807 83.6C612.087 83.32 612.227 82.9233 612.227 82.41ZM656.885 76.6V85.28H634.415V76.6H656.885ZM664.585 92H652.265L645.545 60.43L638.615 92H626.575L638.125 47.06H653.035L664.585 92ZM692.233 82.27H683.833L678.303 63.58V92H667.383V47.06H680.753L688.033 71.07L695.313 47.06H708.683V92H697.833V63.44L692.233 82.27ZM741.788 76.6V85.28H719.318V76.6H741.788ZM749.488 92H737.168L730.448 60.43L723.518 92H711.478L723.028 47.06H737.938L749.488 92ZM764.185 56.65V82.41C764.185 82.9233 764.325 83.32 764.605 83.6C764.885 83.8333 765.329 83.95 765.935 83.95H767.545V92H762.225C758.492 92 755.832 91.2067 754.245 89.62C752.705 88.0333 751.935 85.9333 751.935 83.32V55.74C751.935 53.1267 752.705 51.0267 754.245 49.44C755.832 47.8533 758.492 47.06 762.225 47.06H767.825V55.11H765.935C765.329 55.11 764.885 55.25 764.605 55.53C764.325 55.7633 764.185 56.1367 764.185 56.65ZM782.455 67.15V74.92H766.705V67.15H782.455ZM770.205 62.46V56.65C770.205 56.1367 770.065 55.7633 769.785 55.53C769.505 55.25 769.062 55.11 768.455 55.11H766.565V47.06H772.165C775.899 47.06 778.535 47.8533 780.075 49.44C781.662 51.0267 782.455 53.1267 782.455 55.74V62.46H770.205ZM770.205 82.41V72.54H782.455V83.32C782.455 85.9333 781.662 88.0333 780.075 89.62C778.535 91.2067 775.899 92 772.165 92H766.845V83.95H768.455C769.062 83.95 769.505 83.8333 769.785 83.6C770.065 83.32 770.205 82.9233 770.205 82.41ZM787.354 47.06H799.604V92H787.354V47.06ZM812.274 64.98V73.73H792.604V64.98H812.274ZM814.304 47.06V55.81H791.694V47.06H814.304ZM814.934 83.25V92H791.694V83.25H814.934Z" fill="white"/>
<path d="M293.564 70.294C292.827 68.8199 290.723 68.8199 289.986 70.294L279.889 90.4885C279.224 91.8183 280.191 93.3829 281.678 93.3829H301.872C303.359 93.3829 304.326 91.8183 303.661 90.4885L293.564 70.294Z" fill="#74ADFC"/>
<ellipse cx="291.775" cy="96.6013" rx="8.73563" ry="8.73563" transform="rotate(180 291.775 96.6013)" fill="#191919"/>
<path d="M280.877 96.6027C280.877 90.5842 285.756 85.7053 291.775 85.7053C297.793 85.7053 302.672 90.5842 302.672 96.6027C302.672 102.621 297.793 107.5 291.775 107.5C285.756 107.5 280.877 102.621 280.877 96.6027Z" stroke="#74ADFC" stroke-width="5"/>
<path d="M292.456 72.2152C293.63 71.0587 292.98 69.058 291.35 68.8126L269.024 65.4501C267.553 65.2287 266.364 66.6319 266.824 68.0458L273.064 87.252C273.524 88.666 275.31 89.1022 276.37 88.0589L292.456 72.2152Z" fill="#74ADFC"/>
<ellipse cx="266.883" cy="78.6435" rx="8.73563" ry="8.73563" transform="rotate(-108 266.883 78.6435)" fill="#191919"/>
<path d="M263.514 68.2797C269.238 66.4199 275.386 69.5524 277.246 75.2763C279.106 81.0001 275.973 87.1479 270.249 89.0077C264.525 90.8675 258.378 87.7351 256.518 82.0112C254.658 76.2873 257.79 70.1395 263.514 68.2797Z" stroke="#74ADFC" stroke-width="5"/>
<path d="M291.013 72.2152C289.839 71.0587 290.489 69.058 292.119 68.8126L314.445 65.4501C315.915 65.2287 317.104 66.6319 316.645 68.0458L310.404 87.252C309.945 88.666 308.158 89.1022 307.099 88.0589L291.013 72.2152Z" fill="#74ADFC"/>
<ellipse cx="8.73563" cy="8.73563" rx="8.73563" ry="8.73563" transform="matrix(0.309017 -0.951057 -0.951057 -0.309017 322.194 89.651)" fill="#191919"/>
<path d="M319.954 68.2797C314.23 66.4199 308.083 69.5524 306.223 75.2763C304.363 81.0001 307.495 87.1479 313.219 89.0077C318.943 90.8675 325.091 87.7351 326.951 82.0112C328.811 76.2873 325.678 70.1395 319.954 68.2797Z" stroke="#74ADFC" stroke-width="5"/>
<path d="M290.087 71.0491C291.549 71.8084 293.251 70.5719 292.981 68.9461L289.28 46.6735C289.036 45.2068 287.334 44.5094 286.131 45.3833L269.793 57.2534C268.591 58.1273 268.728 59.9615 270.048 60.6465L290.087 71.0491Z" fill="#74ADFC"/>
<circle cx="276.07" cy="48.7146" r="8.73563" transform="rotate(-36 276.07 48.7146)" fill="#191919"/>
<path d="M284.886 42.3081C288.423 47.1771 287.344 53.992 282.475 57.5296C277.606 61.0671 270.791 59.9877 267.254 55.1187C263.716 50.2497 264.795 43.4348 269.664 39.8973C274.533 36.3598 281.348 37.4391 284.886 42.3081Z" stroke="#74ADFC" stroke-width="5"/>
<path d="M293.814 71.0491C292.351 71.8084 290.649 70.5719 290.919 68.9461L294.621 46.6735C294.864 45.2068 296.566 44.5094 297.769 45.3833L314.107 57.2534C315.31 58.1273 315.172 59.9615 313.853 60.6465L293.814 71.0491Z" fill="#74ADFC"/>
<circle cx="8.73563" cy="8.73563" r="8.73563" transform="matrix(-0.809017 -0.587785 -0.587785 0.809017 320.032 46.782)" fill="#191919"/>
<path d="M299.015 42.3081C295.477 47.1771 296.556 53.992 301.425 57.5296C306.294 61.0671 313.109 59.9877 316.647 55.1187C320.184 50.2497 319.105 43.4348 314.236 39.8973C309.367 36.3598 302.552 37.4391 299.015 42.3081Z" stroke="#74ADFC" stroke-width="5"/>
<circle cx="291.379" cy="71.3793" r="5.51724" fill="#191919"/>
<path d="M509.291 602H525.591C531.258 602 535.391 603.333 537.991 606C540.591 608.6 541.891 612.633 541.891 618.1V622.4C541.891 629.667 539.491 634.267 534.691 636.2V636.4C537.358 637.2 539.225 638.833 540.291 641.3C541.425 643.767 541.991 647.067 541.991 651.2V663.5C541.991 665.5 542.058 667.133 542.191 668.4C542.325 669.6 542.658 670.8 543.191 672H531.991C531.591 670.867 531.325 669.8 531.191 668.8C531.058 667.8 530.991 666 530.991 663.4V650.6C530.991 647.4 530.458 645.167 529.391 643.9C528.391 642.633 526.625 642 524.091 642H520.291V672H509.291V602ZM524.291 632C526.491 632 528.125 631.433 529.191 630.3C530.325 629.167 530.891 627.267 530.891 624.6V619.2C530.891 616.667 530.425 614.833 529.491 613.7C528.625 612.567 527.225 612 525.291 612H520.291V632H524.291ZM565.523 673C560.123 673 555.99 671.467 553.123 668.4C550.257 665.333 548.823 661 548.823 655.4V618.6C548.823 613 550.257 608.667 553.123 605.6C555.99 602.533 560.123 601 565.523 601C570.923 601 575.057 602.533 577.923 605.6C580.79 608.667 582.223 613 582.223 618.6V655.4C582.223 661 580.79 665.333 577.923 668.4C575.057 671.467 570.923 673 565.523 673ZM565.523 663C569.323 663 571.223 660.7 571.223 656.1V617.9C571.223 613.3 569.323 611 565.523 611C561.723 611 559.823 613.3 559.823 617.9V656.1C559.823 660.7 561.723 663 565.523 663ZM589.663 602H606.263C611.929 602 616.063 603.333 618.663 606C621.263 608.6 622.563 612.633 622.563 618.1V620.9C622.563 624.5 621.963 627.433 620.763 629.7C619.629 631.967 617.863 633.6 615.463 634.6V634.8C620.929 636.667 623.663 641.533 623.663 649.4V655.4C623.663 660.8 622.229 664.933 619.363 667.8C616.563 670.6 612.429 672 606.963 672H589.663V602ZM604.963 630.5C607.163 630.5 608.796 629.933 609.863 628.8C610.996 627.667 611.563 625.767 611.563 623.1V619.2C611.563 616.667 611.096 614.833 610.163 613.7C609.296 612.567 607.896 612 605.963 612H600.663V630.5H604.963ZM606.963 662C608.896 662 610.329 661.5 611.262 660.5C612.196 659.433 612.663 657.633 612.663 655.1V649C612.663 645.8 612.096 643.6 610.963 642.4C609.896 641.133 608.096 640.5 605.563 640.5H600.663V662H606.963ZM645.992 673C640.592 673 636.459 671.467 633.592 668.4C630.726 665.333 629.292 661 629.292 655.4V618.6C629.292 613 630.726 608.667 633.592 605.6C636.459 602.533 640.592 601 645.992 601C651.392 601 655.526 602.533 658.392 605.6C661.259 608.667 662.692 613 662.692 618.6V655.4C662.692 661 661.259 665.333 658.392 668.4C655.526 671.467 651.392 673 645.992 673ZM645.992 663C649.792 663 651.692 660.7 651.692 656.1V617.9C651.692 613.3 649.792 611 645.992 611C642.192 611 640.292 613.3 640.292 617.9V656.1C640.292 660.7 642.192 663 645.992 663ZM678.341 612H666.841V602H700.841V612H689.341V672H678.341V612ZM706.166 602H717.166V672H706.166V602ZM740.905 673C735.638 673 731.605 671.5 728.805 668.5C726.071 665.5 724.705 661.267 724.705 655.8V618.2C724.705 612.733 726.071 608.5 728.805 605.5C731.605 602.5 735.638 601 740.905 601C746.171 601 750.171 602.5 752.905 605.5C755.705 608.5 757.105 612.733 757.105 618.2V625.6H746.705V617.5C746.705 613.167 744.871 611 741.205 611C737.538 611 735.705 613.167 735.705 617.5V656.6C735.705 660.867 737.538 663 741.205 663C744.871 663 746.705 660.867 746.705 656.6V645.9H757.105V655.8C757.105 661.267 755.705 665.5 752.905 668.5C750.171 671.5 746.171 673 740.905 673ZM778.181 673C772.848 673 768.815 671.5 766.081 668.5C763.348 665.433 761.981 661.067 761.981 655.4V651.4H772.381V656.2C772.381 660.733 774.281 663 778.081 663C779.948 663 781.348 662.467 782.281 661.4C783.281 660.267 783.781 658.467 783.781 656C783.781 653.067 783.115 650.5 781.781 648.3C780.448 646.033 777.981 643.333 774.381 640.2C769.848 636.2 766.681 632.6 764.881 629.4C763.081 626.133 762.181 622.467 762.181 618.4C762.181 612.867 763.581 608.6 766.381 605.6C769.181 602.533 773.248 601 778.581 601C783.848 601 787.815 602.533 790.481 605.6C793.215 608.6 794.581 612.933 794.581 618.6V621.5H784.181V617.9C784.181 615.5 783.715 613.767 782.781 612.7C781.848 611.567 780.481 611 778.681 611C775.015 611 773.181 613.233 773.181 617.7C773.181 620.233 773.848 622.6 775.181 624.8C776.581 627 779.081 629.667 782.681 632.8C787.281 636.8 790.448 640.433 792.181 643.7C793.915 646.967 794.781 650.8 794.781 655.2C794.781 660.933 793.348 665.333 790.481 668.4C787.681 671.467 783.581 673 778.181 673ZM825.604 602H840.504L851.904 672H840.904L838.904 658.1V658.3H826.404L824.404 672H814.204L825.604 602ZM837.604 648.8L832.704 614.2H832.504L827.704 648.8H837.604ZM857.241 602H871.041L881.741 643.9H881.941V602H891.741V672H880.441L867.241 620.9H867.041V672H857.241V602ZM899.916 602H916.716C922.183 602 926.283 603.467 929.016 606.4C931.75 609.333 933.116 613.633 933.116 619.3V654.7C933.116 660.367 931.75 664.667 929.016 667.6C926.283 670.533 922.183 672 916.716 672H899.916V602ZM916.516 662C918.316 662 919.683 661.467 920.616 660.4C921.616 659.333 922.116 657.6 922.116 655.2V618.8C922.116 616.4 921.616 614.667 920.616 613.6C919.683 612.533 918.316 612 916.516 612H910.916V662H916.516ZM956.557 602H972.257L979.257 652.1H979.457L986.457 602H1002.16V672H991.757V619H991.557L983.557 672H974.357L966.357 619H966.157V672H956.557V602ZM1010.37 602H1040.37V612H1021.37V630.5H1036.47V640.5H1021.37V662H1040.37V672H1010.37V602ZM1062.19 673C1056.93 673 1052.89 671.5 1050.09 668.5C1047.36 665.5 1045.99 661.267 1045.99 655.8V618.2C1045.99 612.733 1047.36 608.5 1050.09 605.5C1052.89 602.5 1056.93 601 1062.19 601C1067.46 601 1071.46 602.5 1074.19 605.5C1076.99 608.5 1078.39 612.733 1078.39 618.2V625.6H1067.99V617.5C1067.99 613.167 1066.16 611 1062.49 611C1058.83 611 1056.99 613.167 1056.99 617.5V656.6C1056.99 660.867 1058.83 663 1062.49 663C1066.16 663 1067.99 660.867 1067.99 656.6V645.9H1078.39V655.8C1078.39 661.267 1076.99 665.5 1074.19 668.5C1071.46 671.5 1067.46 673 1062.19 673ZM1084.98 602H1095.98V630.5H1107.78V602H1118.78V672H1107.78V640.5H1095.98V672H1084.98V602ZM1135.47 602H1150.37L1161.77 672H1150.77L1148.77 658.1V658.3H1136.27L1134.27 672H1124.07L1135.47 602ZM1147.47 648.8L1142.57 614.2H1142.37L1137.57 648.8H1147.47ZM1171.11 612H1159.61V602H1193.61V612H1182.11V672H1171.11V612ZM1198.94 602H1215.24C1220.91 602 1225.04 603.333 1227.64 606C1230.24 608.6 1231.54 612.633 1231.54 618.1V622.4C1231.54 629.667 1229.14 634.267 1224.34 636.2V636.4C1227.01 637.2 1228.87 638.833 1229.94 641.3C1231.07 643.767 1231.64 647.067 1231.64 651.2V663.5C1231.64 665.5 1231.71 667.133 1231.84 668.4C1231.97 669.6 1232.31 670.8 1232.84 672H1221.64C1221.24 670.867 1220.97 669.8 1220.84 668.8C1220.71 667.8 1220.64 666 1220.64 663.4V650.6C1220.64 647.4 1220.11 645.167 1219.04 643.9C1218.04 642.633 1216.27 642 1213.74 642H1209.94V672H1198.94V602ZM1213.94 632C1216.14 632 1217.77 631.433 1218.84 630.3C1219.97 629.167 1220.54 627.267 1220.54 624.6V619.2C1220.54 616.667 1220.07 614.833 1219.14 613.7C1218.27 612.567 1216.87 612 1214.94 612H1209.94V632H1213.94ZM1255.17 673C1249.77 673 1245.64 671.467 1242.77 668.4C1239.91 665.333 1238.47 661 1238.47 655.4V618.6C1238.47 613 1239.91 608.667 1242.77 605.6C1245.64 602.533 1249.77 601 1255.17 601C1260.57 601 1264.71 602.533 1267.57 605.6C1270.44 608.667 1271.87 613 1271.87 618.6V655.4C1271.87 661 1270.44 665.333 1267.57 668.4C1264.71 671.467 1260.57 673 1255.17 673ZM1255.17 663C1258.97 663 1260.87 660.7 1260.87 656.1V617.9C1260.87 613.3 1258.97 611 1255.17 611C1251.37 611 1249.47 613.3 1249.47 617.9V656.1C1249.47 660.7 1251.37 663 1255.17 663ZM1279.31 602H1293.11L1303.81 643.9H1304.01V602H1313.81V672H1302.51L1289.31 620.9H1289.11V672H1279.31V602ZM1321.99 602H1332.99V672H1321.99V602ZM1356.73 673C1351.46 673 1347.43 671.5 1344.63 668.5C1341.89 665.5 1340.53 661.267 1340.53 655.8V618.2C1340.53 612.733 1341.89 608.5 1344.63 605.5C1347.43 602.5 1351.46 601 1356.73 601C1361.99 601 1365.99 602.5 1368.73 605.5C1371.53 608.5 1372.93 612.733 1372.93 618.2V625.6H1362.53V617.5C1362.53 613.167 1360.69 611 1357.03 611C1353.36 611 1351.53 613.167 1351.53 617.5V656.6C1351.53 660.867 1353.36 663 1357.03 663C1360.69 663 1362.53 660.867 1362.53 656.6V645.9H1372.93V655.8C1372.93 661.267 1371.53 665.5 1368.73 668.5C1365.99 671.5 1361.99 673 1356.73 673ZM1394 673C1388.67 673 1384.63 671.5 1381.9 668.5C1379.17 665.433 1377.8 661.067 1377.8 655.4V651.4H1388.2V656.2C1388.2 660.733 1390.1 663 1393.9 663C1395.77 663 1397.17 662.467 1398.1 661.4C1399.1 660.267 1399.6 658.467 1399.6 656C1399.6 653.067 1398.93 650.5 1397.6 648.3C1396.27 646.033 1393.8 643.333 1390.2 640.2C1385.67 636.2 1382.5 632.6 1380.7 629.4C1378.9 626.133 1378 622.467 1378 618.4C1378 612.867 1379.4 608.6 1382.2 605.6C1385 602.533 1389.07 601 1394.4 601C1399.67 601 1403.63 602.533 1406.3 605.6C1409.03 608.6 1410.4 612.933 1410.4 618.6V621.5H1400V617.9C1400 615.5 1399.53 613.767 1398.6 612.7C1397.67 611.567 1396.3 611 1394.5 611C1390.83 611 1389 613.233 1389 617.7C1389 620.233 1389.67 622.6 1391 624.8C1392.4 627 1394.9 629.667 1398.5 632.8C1403.1 636.8 1406.27 640.433 1408 643.7C1409.73 646.967 1410.6 650.8 1410.6 655.2C1410.6 660.933 1409.17 665.333 1406.3 668.4C1403.5 671.467 1399.4 673 1394 673ZM623.159 702H653.159V712H634.159V730.5H649.259V740.5H634.159V762H653.159V772H623.159V702ZM659.487 702H673.287L683.987 743.9H684.187V702H693.987V772H682.687L669.487 720.9H669.287V772H659.487V702ZM717.763 773C712.429 773 708.363 771.5 705.563 768.5C702.763 765.433 701.362 761.067 701.362 755.4V718.6C701.362 712.933 702.763 708.6 705.563 705.6C708.363 702.533 712.429 701 717.763 701C723.096 701 727.163 702.533 729.963 705.6C732.763 708.6 734.163 712.933 734.163 718.6V724.6H723.762V717.9C723.762 713.3 721.863 711 718.063 711C714.263 711 712.363 713.3 712.363 717.9V756.2C712.363 760.733 714.263 763 718.063 763C721.863 763 723.762 760.733 723.762 756.2V742.5H718.263V732.5H734.163V755.4C734.163 761.067 732.763 765.433 729.963 768.5C727.163 771.5 723.096 773 717.763 773ZM741.225 702H752.225V772H741.225V702ZM760.463 702H774.263L784.963 743.9H785.163V702H794.963V772H783.663L770.463 720.9H770.263V772H760.463V702ZM803.139 702H833.139V712H814.139V730.5H829.239V740.5H814.139V762H833.139V772H803.139V702ZM839.467 702H869.467V712H850.467V730.5H865.567V740.5H850.467V762H869.467V772H839.467V702ZM875.795 702H892.095C897.762 702 901.895 703.333 904.495 706C907.095 708.6 908.395 712.633 908.395 718.1V722.4C908.395 729.667 905.995 734.267 901.195 736.2V736.4C903.862 737.2 905.729 738.833 906.795 741.3C907.929 743.767 908.495 747.067 908.495 751.2V763.5C908.495 765.5 908.562 767.133 908.695 768.4C908.829 769.6 909.162 770.8 909.695 772H898.495C898.095 770.867 897.829 769.8 897.695 768.8C897.562 767.8 897.495 766 897.495 763.4V750.6C897.495 747.4 896.962 745.167 895.895 743.9C894.895 742.633 893.129 742 890.595 742H886.795V772H875.795V702ZM890.795 732C892.995 732 894.629 731.433 895.695 730.3C896.829 729.167 897.395 727.267 897.395 724.6V719.2C897.395 716.667 896.929 714.833 895.995 713.7C895.129 712.567 893.729 712 891.795 712H886.795V732H890.795ZM916.127 702H927.127V772H916.127V702ZM935.366 702H949.166L959.866 743.9H960.066V702H969.866V772H958.566L945.366 720.9H945.166V772H935.366V702ZM993.641 773C988.308 773 984.241 771.5 981.441 768.5C978.641 765.433 977.241 761.067 977.241 755.4V718.6C977.241 712.933 978.641 708.6 981.441 705.6C984.241 702.533 988.308 701 993.641 701C998.975 701 1003.04 702.533 1005.84 705.6C1008.64 708.6 1010.04 712.933 1010.04 718.6V724.6H999.641V717.9C999.641 713.3 997.741 711 993.941 711C990.141 711 988.241 713.3 988.241 717.9V756.2C988.241 760.733 990.141 763 993.941 763C997.741 763 999.641 760.733 999.641 756.2V742.5H994.141V732.5H1010.04V755.4C1010.04 761.067 1008.64 765.433 1005.84 768.5C1003.04 771.5 998.975 773 993.641 773ZM1047.42 773C1042.09 773 1038.05 771.5 1035.32 768.5C1032.59 765.433 1031.22 761.067 1031.22 755.4V751.4H1041.62V756.2C1041.62 760.733 1043.52 763 1047.32 763C1049.19 763 1050.59 762.467 1051.52 761.4C1052.52 760.267 1053.02 758.467 1053.02 756C1053.02 753.067 1052.35 750.5 1051.02 748.3C1049.69 746.033 1047.22 743.333 1043.62 740.2C1039.09 736.2 1035.92 732.6 1034.12 729.4C1032.32 726.133 1031.42 722.467 1031.42 718.4C1031.42 712.867 1032.82 708.6 1035.62 705.6C1038.42 702.533 1042.49 701 1047.82 701C1053.09 701 1057.05 702.533 1059.72 705.6C1062.45 708.6 1063.82 712.933 1063.82 718.6V721.5H1053.42V717.9C1053.42 715.5 1052.95 713.767 1052.02 712.7C1051.09 711.567 1049.72 711 1047.92 711C1044.25 711 1042.42 713.233 1042.42 717.7C1042.42 720.233 1043.09 722.6 1044.42 724.8C1045.82 727 1048.32 729.667 1051.92 732.8C1056.52 736.8 1059.69 740.433 1061.42 743.7C1063.15 746.967 1064.02 750.8 1064.02 755.2C1064.02 760.933 1062.59 765.333 1059.72 768.4C1056.92 771.467 1052.82 773 1047.42 773ZM1078.93 712H1067.43V702H1101.43V712H1089.93V772H1078.93V712ZM1122.75 773C1117.42 773 1113.35 771.5 1110.55 768.5C1107.75 765.433 1106.35 761.067 1106.35 755.4V702H1117.35V756.2C1117.35 758.6 1117.82 760.333 1118.75 761.4C1119.75 762.467 1121.15 763 1122.95 763C1124.75 763 1126.12 762.467 1127.05 761.4C1128.05 760.333 1128.55 758.6 1128.55 756.2V702H1139.15V755.4C1139.15 761.067 1137.75 765.433 1134.95 768.5C1132.15 771.5 1128.09 773 1122.75 773ZM1146.99 702H1163.79C1169.25 702 1173.35 703.467 1176.09 706.4C1178.82 709.333 1180.19 713.633 1180.19 719.3V754.7C1180.19 760.367 1178.82 764.667 1176.09 767.6C1173.35 770.533 1169.25 772 1163.79 772H1146.99V702ZM1163.59 762C1165.39 762 1166.75 761.467 1167.69 760.4C1168.69 759.333 1169.19 757.6 1169.19 755.2V718.8C1169.19 716.4 1168.69 714.667 1167.69 713.6C1166.75 712.533 1165.39 712 1163.59 712H1157.99V762H1163.59ZM1187.61 702H1217.61V712H1198.61V730.5H1213.71V740.5H1198.61V762H1217.61V772H1187.61V702ZM1223.94 702H1237.74L1248.44 743.9H1248.64V702H1258.44V772H1247.14L1233.94 720.9H1233.74V772H1223.94V702ZM1275.22 712H1263.72V702H1297.72V712H1286.22V772H1275.22V712Z" fill="white"/>
<path d="M843.033 847.6C839.833 847.6 837.393 846.7 835.713 844.9C834.033 843.06 833.193 840.44 833.193 837.04V805H839.793V837.52C839.793 838.96 840.073 840 840.633 840.64C841.233 841.28 842.073 841.6 843.153 841.6C844.233 841.6 845.053 841.28 845.613 840.64C846.213 840 846.513 838.96 846.513 837.52V805H852.873V837.04C852.873 840.44 852.033 843.06 850.353 844.9C848.673 846.7 846.233 847.6 843.033 847.6ZM857.573 805H865.853L872.273 830.14H872.393V805H878.273V847H871.493L863.573 816.34H863.453V847H857.573V805ZM891.759 847.6C888.559 847.6 886.139 846.7 884.499 844.9C882.859 843.06 882.039 840.44 882.039 837.04V834.64H888.279V837.52C888.279 840.24 889.419 841.6 891.699 841.6C892.819 841.6 893.659 841.28 894.219 840.64C894.819 839.96 895.119 838.88 895.119 837.4C895.119 835.64 894.719 834.1 893.919 832.78C893.119 831.42 891.639 829.8 889.479 827.92C886.759 825.52 884.859 823.36 883.779 821.44C882.699 819.48 882.159 817.28 882.159 814.84C882.159 811.52 882.999 808.96 884.679 807.16C886.359 805.32 888.799 804.4 891.999 804.4C895.159 804.4 897.539 805.32 899.139 807.16C900.779 808.96 901.599 811.56 901.599 814.96V816.7H895.359V814.54C895.359 813.1 895.079 812.06 894.519 811.42C893.959 810.74 893.139 810.4 892.059 810.4C889.859 810.4 888.759 811.74 888.759 814.42C888.759 815.94 889.159 817.36 889.959 818.68C890.799 820 892.299 821.6 894.459 823.48C897.219 825.88 899.119 828.06 900.159 830.02C901.199 831.98 901.719 834.28 901.719 836.92C901.719 840.36 900.859 843 899.139 844.84C897.459 846.68 894.999 847.6 891.759 847.6ZM903.943 805H910.303L913.243 837.28H913.363L916.483 805H923.683L926.803 837.28H926.923L929.863 805H935.563L931.303 847H923.083L920.083 818.68H919.963L916.963 847H908.203L903.943 805ZM957.091 847.6C953.891 847.6 951.471 846.7 949.831 844.9C948.191 843.06 947.371 840.44 947.371 837.04V834.64H953.611V837.52C953.611 840.24 954.751 841.6 957.031 841.6C958.151 841.6 958.991 841.28 959.551 840.64C960.151 839.96 960.451 838.88 960.451 837.4C960.451 835.64 960.051 834.1 959.251 832.78C958.451 831.42 956.971 829.8 954.811 827.92C952.091 825.52 950.191 823.36 949.111 821.44C948.031 819.48 947.491 817.28 947.491 814.84C947.491 811.52 948.331 808.96 950.011 807.16C951.691 805.32 954.131 804.4 957.331 804.4C960.491 804.4 962.871 805.32 964.471 807.16C966.111 808.96 966.931 811.56 966.931 814.96V816.7H960.691V814.54C960.691 813.1 960.411 812.06 959.851 811.42C959.291 810.74 958.471 810.4 957.391 810.4C955.191 810.4 954.091 811.74 954.091 814.42C954.091 815.94 954.491 817.36 955.291 818.68C956.131 820 957.631 821.6 959.791 823.48C962.551 825.88 964.451 828.06 965.491 830.02C966.531 831.98 967.051 834.28 967.051 836.92C967.051 840.36 966.191 843 964.471 844.84C962.791 846.68 960.331 847.6 957.091 847.6ZM976.543 829.12L968.563 805H975.583L980.083 820.42H980.203L984.703 805H991.123L983.143 829.12V847H976.543V829.12ZM994.097 805H1004.18C1007.46 805 1009.92 805.88 1011.56 807.64C1013.2 809.4 1014.02 811.98 1014.02 815.38V836.62C1014.02 840.02 1013.2 842.6 1011.56 844.36C1009.92 846.12 1007.46 847 1004.18 847H994.097V805ZM1004.06 841C1005.14 841 1005.96 840.68 1006.52 840.04C1007.12 839.4 1007.42 838.36 1007.42 836.92V815.08C1007.42 813.64 1007.12 812.6 1006.52 811.96C1005.96 811.32 1005.14 811 1004.06 811H1000.7V841H1004.06ZM1018.47 805H1026.75L1033.17 830.14H1033.29V805H1039.17V847H1032.39L1024.47 816.34H1024.35V847H1018.47V805ZM1044.08 805H1062.08V811H1050.68V822.1H1059.74V828.1H1050.68V841H1062.08V847H1044.08V805ZM1071.93 829.12L1063.95 805H1070.97L1075.47 820.42H1075.59L1080.09 805H1086.51L1078.53 829.12V847H1071.93V829.12Z" fill="#C0C0C0"/>
<path d="M863.119 897.96C863.119 895.96 863.439 894.253 864.079 892.84C864.719 891.4 865.865 889.813 867.519 888.08C869.145 886.347 870.265 884.867 870.879 883.64C871.519 882.413 871.839 881.133 871.839 879.8C871.839 878.6 871.639 877.773 871.239 877.32C870.865 876.84 870.305 876.6 869.559 876.6C868.039 876.6 867.279 877.52 867.279 879.36V882.36H863.119V879.64C863.119 877.373 863.679 875.64 864.799 874.44C865.919 873.213 867.545 872.6 869.679 872.6C871.812 872.6 873.439 873.213 874.559 874.44C875.679 875.64 876.239 877.373 876.239 879.64C876.239 881.347 875.825 883.013 874.999 884.64C874.199 886.267 872.799 888.133 870.799 890.24C869.492 891.627 868.612 892.76 868.159 893.64C867.705 894.493 867.479 895.413 867.479 896.4V897H875.839V901H863.119V897.96ZM885.574 901.4C883.414 901.4 881.761 900.787 880.614 899.56C879.468 898.333 878.894 896.6 878.894 894.36V879.64C878.894 877.4 879.468 875.667 880.614 874.44C881.761 873.213 883.414 872.6 885.574 872.6C887.734 872.6 889.388 873.213 890.534 874.44C891.681 875.667 892.254 877.4 892.254 879.64V894.36C892.254 896.6 891.681 898.333 890.534 899.56C889.388 900.787 887.734 901.4 885.574 901.4ZM885.574 897.4C887.094 897.4 887.854 896.48 887.854 894.64V879.36C887.854 877.52 887.094 876.6 885.574 876.6C884.054 876.6 883.294 877.52 883.294 879.36V894.64C883.294 896.48 884.054 897.4 885.574 897.4ZM895.15 897.96C895.15 895.96 895.47 894.253 896.11 892.84C896.75 891.4 897.897 889.813 899.55 888.08C901.177 886.347 902.297 884.867 902.91 883.64C903.55 882.413 903.87 881.133 903.87 879.8C903.87 878.6 903.67 877.773 903.27 877.32C902.897 876.84 902.337 876.6 901.59 876.6C900.07 876.6 899.31 877.52 899.31 879.36V882.36H895.15V879.64C895.15 877.373 895.71 875.64 896.83 874.44C897.95 873.213 899.577 872.6 901.71 872.6C903.843 872.6 905.47 873.213 906.59 874.44C907.71 875.64 908.27 877.373 908.27 879.64C908.27 881.347 907.857 883.013 907.03 884.64C906.23 886.267 904.83 888.133 902.83 890.24C901.523 891.627 900.643 892.76 900.19 893.64C899.737 894.493 899.51 895.413 899.51 896.4V897H907.87V901H895.15V897.96ZM918.605 895.92H910.205V891.92L918.205 873H923.005V891.92H925.085V895.92H923.005V901H918.605V895.92ZM918.605 891.92V881H918.525L914.205 891.92H918.605ZM933.027 885H941.827V889H933.027V885ZM950.855 873H957.335C959.522 873 961.162 873.587 962.255 874.76C963.348 875.933 963.895 877.653 963.895 879.92V882.68C963.895 884.947 963.348 886.667 962.255 887.84C961.162 889.013 959.522 889.6 957.335 889.6H955.255V901H950.855V873ZM957.335 885.6C958.055 885.6 958.588 885.4 958.935 885C959.308 884.6 959.495 883.92 959.495 882.96V879.64C959.495 878.68 959.308 878 958.935 877.6C958.588 877.2 958.055 877 957.335 877H955.255V885.6H957.335ZM966.285 873H972.805C975.071 873 976.725 873.533 977.765 874.6C978.805 875.64 979.325 877.253 979.325 879.44V881.16C979.325 884.067 978.365 885.907 976.445 886.68V886.76C977.511 887.08 978.258 887.733 978.685 888.72C979.138 889.707 979.365 891.027 979.365 892.68V897.6C979.365 898.4 979.391 899.053 979.445 899.56C979.498 900.04 979.631 900.52 979.845 901H975.365C975.205 900.547 975.098 900.12 975.045 899.72C974.991 899.32 974.965 898.6 974.965 897.56V892.44C974.965 891.16 974.751 890.267 974.325 889.76C973.925 889.253 973.218 889 972.205 889H970.685V901H966.285V873ZM972.285 885C973.165 885 973.818 884.773 974.245 884.32C974.698 883.867 974.925 883.107 974.925 882.04V879.88C974.925 878.867 974.738 878.133 974.365 877.68C974.018 877.227 973.458 877 972.685 877H970.685V885H972.285ZM982.417 873H994.417V877H986.817V884.4H992.857V888.4H986.817V897H994.417V901H982.417V873ZM1002.75 901.4C1000.61 901.4 999 900.8 997.907 899.6C996.813 898.373 996.267 896.627 996.267 894.36V892.76H1000.43V894.68C1000.43 896.493 1001.19 897.4 1002.71 897.4C1003.45 897.4 1004.01 897.187 1004.39 896.76C1004.79 896.307 1004.99 895.587 1004.99 894.6C1004.99 893.427 1004.72 892.4 1004.19 891.52C1003.65 890.613 1002.67 889.533 1001.23 888.28C999.413 886.68 998.147 885.24 997.427 883.96C996.707 882.653 996.347 881.187 996.347 879.56C996.347 877.347 996.907 875.64 998.027 874.44C999.147 873.213 1000.77 872.6 1002.91 872.6C1005.01 872.6 1006.6 873.213 1007.67 874.44C1008.76 875.64 1009.31 877.373 1009.31 879.64V880.8H1005.15V879.36C1005.15 878.4 1004.96 877.707 1004.59 877.28C1004.21 876.827 1003.67 876.6 1002.95 876.6C1001.48 876.6 1000.75 877.493 1000.75 879.28C1000.75 880.293 1001.01 881.24 1001.55 882.12C1002.11 883 1003.11 884.067 1004.55 885.32C1006.39 886.92 1007.65 888.373 1008.35 889.68C1009.04 890.987 1009.39 892.52 1009.39 894.28C1009.39 896.573 1008.81 898.333 1007.67 899.56C1006.55 900.787 1004.91 901.4 1002.75 901.4ZM1011.91 873H1023.91V877H1016.31V884.4H1022.35V888.4H1016.31V897H1023.91V901H1011.91V873ZM1026.44 873H1031.96L1036.24 889.76H1036.32V873H1040.24V901H1035.72L1030.44 880.56H1030.36V901H1026.44V873ZM1046.95 877H1042.35V873H1055.95V877H1051.35V901H1046.95V877Z" fill="#C0C0C0"/>
<path d="M910.566 492.359L892.339 460.79L892.339 424.337L910.566 392.768L942.135 374.541H978.588L1010.16 392.768L1028.38 424.337L1028.38 460.79L1010.16 492.359L978.588 510.586H942.135L910.566 492.359Z" fill="#C0C0C0"/>
<ellipse cx="959.357" cy="473.132" rx="18.6833" ry="17.7936" fill="#191919"/>
<rect x="850.816" y="271.539" width="217.972" height="201.205" rx="52" fill="#D9D9D9"/>
<rect x="1030.78" y="262.597" width="140.843" height="62.5971" rx="31.2985" transform="rotate(180 1030.78 262.597)" fill="#D9D9D9"/>
<circle cx="960.361" cy="231.299" r="27.9451" fill="#4D4D4D"/>
<circle cx="959.802" cy="230.74" r="10.6191" fill="#74ADFC"/>
<path d="M717.986 529.55L704.873 506.839L704.873 480.613L717.986 457.901L740.698 444.788H766.923L789.635 457.901L802.748 480.613L802.748 506.839L789.635 529.55L766.923 542.663H740.698L717.986 529.55Z" fill="#C0C0C0"/>
<ellipse cx="753.088" cy="515.718" rx="13.4414" ry="12.8013" fill="#191919"/>
<rect x="675" y="370.685" width="156.816" height="144.754" rx="52" fill="#D9D9D9"/>
<rect x="804.474" y="364.252" width="101.327" height="45.0344" rx="22.5172" transform="rotate(180 804.474 364.252)" fill="#D9D9D9"/>
<circle cx="753.81" cy="341.735" r="20.1047" fill="#4D4D4D"/>
<circle cx="753.408" cy="341.332" r="7.63977" fill="#EB5939"/>
<path d="M1130.77 529.55L1117.66 506.839L1117.66 480.613L1130.77 457.901L1153.49 444.788H1179.71L1202.42 457.901L1215.54 480.613L1215.54 506.839L1202.42 529.55L1179.71 542.663H1153.49L1130.77 529.55Z" fill="#C0C0C0"/>
<ellipse cx="1165.88" cy="515.718" rx="13.4414" ry="12.8013" fill="#191919"/>
<rect x="1087.79" y="370.685" width="156.816" height="144.754" rx="52" fill="#D9D9D9"/>
<rect x="1217.26" y="364.252" width="101.327" height="45.0344" rx="22.5172" transform="rotate(180 1217.26 364.252)" fill="#D9D9D9"/>
<circle cx="1166.6" cy="341.735" r="20.1047" fill="#4D4D4D"/>
<circle cx="1166.2" cy="341.332" r="7.63977" fill="#EB5939"/>
<rect x="920" y="952" width="80" height="80" rx="15" stroke="#74ADFC" stroke-width="10"/>
<path d="M959 1017L973.921 992.288L945.059 991.722L959 1017ZM957.5 965.951L956.942 994.455L961.941 994.553L962.5 966.049L957.5 965.951Z" fill="#74ADFC"/>
</svg>
