<svg width="200" height="200" viewBox="0 0 200 200" fill="none" xmlns="http://www.w3.org/2000/svg">
<path d="M155 9.67007C150.71 9.50007 147 13.6701 147.62 17.7401C147.913 19.1585 148.638 20.4512 149.697 21.4398C150.755 22.4285 152.094 23.0645 153.53 23.2601C157.53 23.7801 161.89 20.4401 161.74 16.2601C161.615 14.528 160.86 12.9016 159.619 11.6876C158.377 10.4736 156.734 9.75594 155 9.67007ZM157.68 20.2801L154.68 18.2801L150.77 20.7201L152.1 17.0301L149.92 15.6201L152.84 15.1401L154.68 12.1901L155.79 14.5201L159.19 14.3701L156.68 16.8001L157.68 20.2801ZM113.13 62.8701C113.8 62.7001 114.62 62.1001 114.53 61.3401C114.44 60.5801 113.62 60.1901 112.96 60.1601C111.9 60.1601 110.84 61.1601 111.02 61.9501C111.2 62.7401 112.26 63.0801 113.13 62.8701ZM83.6496 172.5C84.6341 171.68 85.511 170.74 86.2596 169.7C87.5496 167.89 89.4396 165.26 88.7296 162.4C88.2796 160.56 86.6196 158.16 84.2396 158.08C81.8596 158 79.9396 160.52 79.3696 162.36C78.5796 164.87 79.7596 167.15 80.5496 168.66C81.3154 170.135 82.3696 171.44 83.6496 172.5ZM81.9996 163.3C81.9996 162.904 82.1169 162.518 82.3367 162.189C82.5564 161.86 82.8688 161.604 83.2342 161.452C83.5997 161.301 84.0018 161.261 84.3898 161.338C84.7778 161.416 85.1341 161.606 85.4138 161.886C85.6935 162.166 85.884 162.522 85.9612 162.91C86.0384 163.298 85.9987 163.7 85.8474 164.065C85.696 164.431 85.4396 164.743 85.1107 164.963C84.7818 165.183 84.3952 165.3 83.9996 165.3C83.4692 165.3 82.9605 165.089 82.5854 164.714C82.2103 164.339 81.9996 163.83 81.9996 163.3ZM152.44 172.22C152.56 168.41 150.44 165.84 148.92 165.84C147.4 165.84 145.28 168.41 145.39 172.22H152.44ZM153.36 170.38L155.79 170.43C155.999 169.551 155.878 168.626 155.45 167.83C154.61 166.36 153.26 165.69 152.35 167.1C153.006 168.068 153.358 169.21 153.36 170.38ZM142 170.43L144.43 170.38C144.433 169.212 144.781 168.071 145.43 167.1C144.51 165.69 143.16 166.37 142.33 167.83C141.903 168.627 141.786 169.552 142 170.43ZM148.92 165.06C149.389 165.102 149.859 165 150.268 164.767C150.678 164.534 151.006 164.182 151.21 163.758C151.413 163.333 151.482 162.856 151.407 162.391C151.332 161.927 151.117 161.496 150.79 161.157C150.463 160.818 150.041 160.586 149.579 160.494C149.118 160.402 148.639 160.453 148.207 160.64C147.775 160.828 147.411 161.143 147.163 161.543C146.915 161.943 146.795 162.41 146.82 162.88C146.836 163.44 147.06 163.973 147.448 164.376C147.837 164.779 148.361 165.023 148.92 165.06ZM143.7 165.7C144.112 165.662 144.494 165.47 144.77 165.162C145.047 164.855 145.196 164.454 145.19 164.04C145.161 163.749 145.047 163.472 144.864 163.244C144.68 163.016 144.435 162.846 144.156 162.755C143.878 162.664 143.579 162.656 143.296 162.732C143.014 162.807 142.759 162.964 142.563 163.181C142.368 163.399 142.24 163.669 142.195 163.959C142.15 164.248 142.19 164.544 142.311 164.811C142.431 165.078 142.626 165.304 142.873 165.462C143.12 165.62 143.407 165.702 143.7 165.7ZM154.14 165.7C154.552 165.662 154.934 165.47 155.21 165.162C155.487 164.855 155.636 164.454 155.63 164.04C155.601 163.749 155.487 163.472 155.304 163.244C155.12 163.016 154.875 162.846 154.596 162.755C154.318 162.664 154.019 162.656 153.736 162.732C153.454 162.807 153.199 162.964 153.003 163.181C152.808 163.399 152.68 163.669 152.635 163.959C152.59 164.248 152.63 164.544 152.751 164.811C152.871 165.078 153.066 165.304 153.313 165.462C153.56 165.62 153.847 165.702 154.14 165.7ZM88.4096 65.7501C87.7064 65.8041 87.0046 65.6287 86.4096 65.2501C86.6751 64.372 87.1137 63.5559 87.6996 62.8501C87.7433 62.7855 87.7628 62.7076 87.7546 62.6301C87.7463 62.5526 87.7109 62.4805 87.6546 62.4266C87.5983 62.3727 87.5248 62.3405 87.447 62.3356C87.3692 62.3307 87.2922 62.3536 87.2296 62.4001C86.8796 62.7601 85.3596 64.9601 85.6496 65.6701C85.9396 66.3801 88.2996 66.7701 88.8296 66.2601C88.8972 66.2044 88.94 66.1241 88.9484 66.0369C88.9569 65.9497 88.9303 65.8627 88.8746 65.7951C88.8189 65.7274 88.7386 65.6847 88.6514 65.6763C88.5642 65.6678 88.4772 65.6944 88.4096 65.7501ZM94.2896 70.8101C96.4823 70.7385 98.5906 69.9479 100.29 68.5601C100.207 69.2459 99.9809 69.9067 99.6259 70.4994C99.271 71.0921 98.7953 71.6034 98.2296 72.0001C98.1633 72.0398 98.1155 72.1043 98.0968 72.1794C98.078 72.2544 98.0898 72.3338 98.1296 72.4001C98.1694 72.4664 98.2339 72.5142 98.3089 72.5329C98.3839 72.5517 98.4633 72.5398 98.5296 72.5001C99.4107 72.0143 100.132 71.2833 100.606 70.3958C101.08 69.5084 101.286 68.5024 101.2 67.5001C101.195 67.4131 101.165 67.3294 101.113 67.2592C101.061 67.189 100.99 67.1353 100.909 67.1046C100.827 67.0739 100.739 67.0675 100.654 67.0862C100.569 67.1049 100.491 67.148 100.43 67.2101C98.8245 68.9358 96.6212 69.9838 94.2696 70.1401C94.1706 70.1452 94.0775 70.1889 94.0102 70.2618C93.943 70.3347 93.9069 70.4309 93.9096 70.5301C93.9336 70.6118 93.9838 70.6835 94.0524 70.7341C94.1211 70.7846 94.2044 70.8113 94.2896 70.8101ZM94.7596 48.6501C94.6482 48.6501 94.5414 48.6943 94.4626 48.7731C94.3839 48.8518 94.3396 48.9587 94.3396 49.0701C94.3396 49.1815 94.3839 49.2883 94.4626 49.367C94.5414 49.4458 94.6482 49.4901 94.7596 49.4901C95.567 49.5295 96.3553 49.7494 97.0666 50.1336C97.7778 50.5178 98.3939 51.0565 98.8696 51.7101C98.9189 51.7687 98.9875 51.8078 99.0631 51.8202C99.1387 51.8325 99.2162 51.8174 99.2816 51.7774C99.347 51.7375 99.3958 51.6754 99.4193 51.6025C99.4428 51.5296 99.4394 51.4507 99.4096 51.3801C98.9417 50.5575 98.2659 49.8723 97.4497 49.3931C96.6336 48.914 95.7059 48.6577 94.7596 48.6501ZM82.8096 49.3301C82.1443 49.8922 81.2892 50.1784 80.4196 50.1301C80.3299 50.1257 80.2418 50.155 80.1726 50.2122C80.1034 50.2695 80.0581 50.3505 80.0456 50.4394C80.0331 50.5284 80.0542 50.6187 80.1049 50.6929C80.1556 50.767 80.2322 50.8195 80.3196 50.8401C80.8576 50.9529 81.4144 50.9404 81.9468 50.8034C82.4792 50.6664 82.9729 50.4086 83.3896 50.0501C83.7896 49.6701 83.2596 49.0001 82.8096 49.3301ZM81.8896 59.5601C81.8896 59.1101 81.6496 57.2701 81.6596 56.8401C81.6596 56.7472 81.6227 56.6582 81.5571 56.5926C81.4915 56.5269 81.4024 56.4901 81.3096 56.4901C81.2184 56.4873 81.1298 56.5203 81.0625 56.5819C80.9953 56.6435 80.9548 56.729 80.9496 56.8201C80.8952 57.7693 80.8952 58.7208 80.9496 59.6701C80.9642 59.7947 81.0277 59.9085 81.1262 59.9863C81.1749 60.0248 81.2308 60.0534 81.2906 60.0703C81.3504 60.0873 81.4129 60.0923 81.4746 60.0851C81.5363 60.0778 81.596 60.0585 81.6503 60.0282C81.7045 59.9979 81.7523 59.9573 81.7908 59.9085C81.8294 59.8598 81.8579 59.8039 81.8749 59.7441C81.8918 59.6843 81.8968 59.6218 81.8896 59.5601ZM95.9996 59.3201C95.9996 58.9901 95.7996 57.6701 95.8096 57.3201C95.8096 57.2272 95.7727 57.1382 95.7071 57.0726C95.6415 57.0069 95.5524 56.9701 95.4596 56.9701C95.3668 56.9701 95.2778 57.0069 95.2121 57.0726C95.1465 57.1382 95.1096 57.2272 95.1096 57.3201C95.1096 57.6801 95.0096 59.0701 95.0496 59.4301C95.0515 59.4966 95.0672 59.562 95.0957 59.6222C95.1242 59.6823 95.1649 59.7359 95.2152 59.7795C95.2655 59.823 95.3243 59.8557 95.3879 59.8753C95.4515 59.8949 95.5185 59.9011 95.5846 59.8934C95.6508 59.8858 95.7146 59.8645 95.772 59.8308C95.8294 59.7972 95.8792 59.752 95.9183 59.698C95.9573 59.6441 95.9847 59.5827 95.9987 59.5176C96.0127 59.4525 96.013 59.3853 95.9996 59.3201Z" fill="black"/>
<path d="M49.2986 103C49.2879 103.033 49.2879 103.068 49.2986 103.1C53.6693 112.946 60.7919 121.32 69.8097 127.214C78.8274 133.107 89.3559 136.27 100.129 136.32C131.369 136.32 156.969 110.03 155.659 77.8502C155.187 66.3046 151.011 55.2176 143.749 46.2302C138.092 39.2778 130.844 33.7897 122.619 30.2302C122.724 29.8696 122.805 29.502 122.859 29.1302C123.419 25.4802 121.859 23.0402 119.089 20.5702C117.696 19.3705 116.234 18.2552 114.709 17.2301C113.195 16.0957 111.445 15.3164 109.589 14.9501C108.601 14.7508 107.58 14.7873 106.608 15.0566C105.637 15.3259 104.743 15.8205 103.999 16.5002C103.719 16.7902 103.479 17.2502 103.179 17.4302C102.741 17.5626 102.28 17.5933 101.829 17.5202C98.7698 17.5197 95.7432 18.1449 92.9349 19.3573C90.1266 20.5697 87.596 22.3437 85.4986 24.5702C84.2421 24.7815 83.0558 25.2952 82.0419 26.0669C81.028 26.8387 80.217 27.8453 79.6786 29.0002C49.7786 41.4102 37.0586 74.0002 49.2986 103ZM83.0686 111.38C81.9027 107.536 81.3956 103.523 81.5686 99.5102C81.7186 96.1702 81.9586 90.5902 85.5686 88.2502C86.6945 87.4687 87.9227 86.8461 89.2186 86.4002C88.0686 92.7702 90.2986 99.1802 92.9986 105C91.2886 105.61 84.6386 110.39 83.0686 111.4V111.38ZM91.0686 86.3802C90.9786 85.3802 90.5186 82.3802 90.4486 81.9102C90.4349 81.7018 90.3679 81.5004 90.2541 81.3253C90.1403 81.1502 89.9835 81.0073 89.7986 80.9102C89.4686 80.7402 87.9986 80.2402 87.6086 80.0402C82.9986 77.7802 79.5586 72.4002 79.9986 64.5502C81.215 64.7272 82.454 64.6695 83.6486 64.3802C85.2186 63.9102 86.1986 62.4302 86.5486 59.9902C86.7748 59.7833 87.0426 59.6272 87.3341 59.5324C87.6256 59.4375 87.934 59.4061 88.2386 59.4402C88.8597 59.4933 89.461 59.6846 89.9986 60.0002C90.1125 60.7941 90.4105 61.5503 90.8689 62.2084C91.3273 62.8665 91.9334 63.4082 92.6386 63.7902C94.222 64.5551 96.0387 64.6828 97.7136 64.1469C99.3884 63.6109 100.793 62.4523 101.639 60.9102C102.066 60.056 102.334 59.1307 102.429 58.1802C104.131 58.2829 105.838 58.138 107.499 57.7502C107.499 58.2602 107.499 59.1802 107.829 59.3602C108.929 59.9102 110.829 55.4902 113.499 55.4902C114.335 55.5435 115.124 55.8989 115.719 56.4902C116.179 56.8307 116.554 57.2735 116.815 57.7836C117.075 58.2938 117.213 58.8574 117.219 59.4302C117.156 59.9345 116.994 60.4214 116.741 60.8625C116.489 61.3037 116.152 61.6904 115.749 62.0002C114.554 63.1238 112.988 63.7682 111.349 63.8102C111.314 63.8141 111.282 63.8264 111.253 63.846C111.225 63.8656 111.202 63.8918 111.186 63.9225C111.17 63.9531 111.162 63.9872 111.163 64.0217C111.163 64.0561 111.172 64.09 111.189 64.1202C112.825 66.8335 113.976 69.8115 114.589 72.9202C114.049 78.8102 113.819 81.3202 113.709 82.5402C112.789 93.5402 108.999 102.68 102.899 111.89C101.532 113.823 100.385 115.903 99.4786 118.09C96.1086 107.5 87.7686 97.5802 89.8786 86.3302C90.0537 86.2589 90.2343 86.2021 90.4186 86.1602C90.4186 86.3135 90.4486 86.4435 90.5086 86.5502C90.5158 86.5869 90.5302 86.6219 90.551 86.6531C90.5717 86.6843 90.5984 86.7111 90.6295 86.732C90.6606 86.7529 90.6955 86.7675 90.7323 86.7749C90.769 86.7823 90.8068 86.7824 90.8436 86.7752C90.8804 86.7679 90.9154 86.7535 90.9466 86.7328C90.9778 86.7121 91.0046 86.6854 91.0255 86.6543C91.0464 86.6232 91.0609 86.5882 91.0683 86.5515C91.0757 86.5148 91.0758 86.4769 91.0686 86.4402V86.3802ZM97.7486 44.5602C97.2258 44.136 96.6383 43.7984 96.0086 43.5602C100.009 43.1902 103.099 42.0502 105.829 38.8402C106.129 39.0002 107.829 39.8402 108.089 40.0102C110.989 44.5202 109.399 46.3602 108.339 51.9102C108.019 53.5802 107.699 55.3202 107.519 56.8502C105.862 57.2707 104.158 57.4791 102.449 57.4702C102.529 56.6802 102.569 55.8302 102.679 55.0102C102.884 54.9274 103.056 54.7787 103.168 54.5874C103.28 54.3962 103.325 54.1731 103.297 53.9534C103.268 53.7336 103.167 53.5296 103.01 53.3734C102.853 53.2171 102.649 53.1175 102.429 53.0902L90.4286 52.8002C90.2471 52.8112 90.0721 52.8716 89.9224 52.9747C89.7727 53.0778 89.6539 53.2198 89.5788 53.3853C89.5037 53.5509 89.4752 53.7338 89.4963 53.9144C89.5174 54.095 89.5874 54.2664 89.6986 54.4102C89.629 55.9684 89.6791 57.5296 89.8486 59.0802C89.3461 58.8286 88.7943 58.691 88.2325 58.6772C87.6708 58.6633 87.1129 58.7736 86.5986 59.0002C86.6829 57.6149 86.6293 56.2248 86.4386 54.8502C86.575 54.7241 86.6765 54.5649 86.7334 54.3881C86.7903 54.2114 86.8007 54.0229 86.7635 53.8409C86.7263 53.659 86.6428 53.4897 86.5211 53.3494C86.3993 53.2091 86.2435 53.1026 86.0686 53.0402C85.9686 53.0402 86.1286 53.0402 79.7186 52.8802C79.7986 50.8802 79.8286 45.3302 80.7186 42.6202C85.8186 46.4302 92.0286 47.6202 97.7186 44.8802C97.756 44.8489 97.7799 44.8045 97.7855 44.7561C97.7911 44.7078 97.7779 44.6591 97.7486 44.6202V44.5602ZM102.049 55.0902C101.789 56.6402 101.899 58.2702 101.329 59.7202C100.736 61.2022 99.5936 62.3985 98.1407 63.0597C96.6877 63.721 95.0357 63.7964 93.5286 63.2702C92.7908 63.0219 92.1391 62.5682 91.6502 61.9624C91.1613 61.3565 90.8555 60.6238 90.7686 59.8502C90.5218 58.1955 90.4181 56.5226 90.4586 54.8502C92.0786 55.0002 100.529 55.1202 102.049 55.1502V55.0902ZM85.7586 55.0902C86.0286 57.6102 86.1686 62.0902 83.9286 63.3302C83.263 63.6191 82.5442 63.7656 81.8186 63.7602C81.1841 63.8153 80.5451 63.785 79.9186 63.6702C79.2719 63.5631 78.6673 63.2795 78.1715 62.8508C77.6757 62.422 77.3079 61.8646 77.1086 61.2402C76.6353 59.1449 76.4403 56.9964 76.5286 54.8502L85.7586 55.0902ZM99.6386 129.78C97.2686 126 88.9986 113.2 86.8186 110C88.7568 108.288 90.9079 106.832 93.2186 105.67C93.8886 106.95 98.2186 115.84 99.1086 119.4C99.1315 119.479 99.1795 119.549 99.2453 119.598C99.3111 119.648 99.3913 119.674 99.4736 119.674C99.5559 119.674 99.6361 119.648 99.7019 119.598C99.7677 119.549 99.8157 119.479 99.8386 119.4C101.239 113.98 104.689 111.53 108.729 103.11C111.004 104.382 113.074 105.99 114.869 107.88C112.999 111.17 102.999 125.87 99.6386 129.83V129.78ZM117.999 109.36C112.199 103.95 109.829 102.71 109.099 102.43C111.91 96.5479 113.706 90.2319 114.409 83.7502C117.309 86.0002 120.309 88.2102 122.989 90.6602C122.409 93.3902 119.229 105.58 117.999 109.36ZM122.449 30.8502C147.819 42.3502 161.449 69.7002 151.819 98.7502C146.889 96.6202 127.919 90.8302 123.579 90.1602C122.359 89.0002 116.579 84.5102 114.509 82.9402C114.509 82.4602 114.429 83.8602 115.229 74.1502C115.229 74.0402 117.459 62.9502 118.399 60.5302C118.902 59.2503 119.515 58.0158 120.229 56.8402C121.397 54.7263 121.753 52.258 121.229 49.9002C121.033 49.1516 120.694 48.4485 120.229 47.8302C121.244 46.8357 121.94 45.5616 122.229 44.1702C122.499 42.0602 121.449 40.0102 120.429 38.2402C121.18 37.058 121.607 35.6994 121.669 34.3002C121.641 33.7695 121.491 33.2525 121.229 32.7902C121.752 32.2322 122.154 31.5716 122.409 30.8502H122.449ZM81.1686 28.2602C84.1686 24.0102 90.1686 25.0802 95.2386 26.1002C101.364 27.3493 107.324 29.3057 112.999 31.9302C113.062 31.9633 113.136 31.9698 113.205 31.9482C113.273 31.9267 113.33 31.8788 113.364 31.8152C113.397 31.7515 113.403 31.6773 113.382 31.6088C113.36 31.5404 113.312 31.4833 113.249 31.4502C107.762 28.7523 101.966 26.7372 95.9886 25.4502C93.1386 24.8402 89.7286 24.1302 86.7686 24.4502C90.1779 21.2433 94.5153 19.1989 99.1586 18.6102C102.329 18.2102 103.239 18.8602 104.099 17.7902C104.525 17.1989 105.079 16.7103 105.719 16.3602C107.369 15.5002 109.779 15.3602 112.659 17.0002C114.213 17.8904 115.7 18.893 117.109 20.0002C118.52 21.0215 119.771 22.2484 120.819 23.6402C121.803 24.9397 122.276 26.5551 122.149 28.1802C122.101 29.6074 121.596 30.9817 120.709 32.1002C120.318 31.6485 119.889 31.2304 119.429 30.8502C117.049 28.8502 109.049 23.2102 107.429 22.2202C107.361 22.1777 107.279 22.1639 107.201 22.1817C107.124 22.1995 107.056 22.2475 107.014 22.3152C106.971 22.3828 106.957 22.4645 106.975 22.5423C106.993 22.6202 107.041 22.6877 107.109 22.7302C109.379 24.1502 116.379 29.3902 118.109 30.8602C119.229 31.7902 120.309 32.6302 120.629 33.6202C121.109 35.1502 120.229 36.6202 119.629 38.0402C119.598 38.1068 119.59 38.1813 119.604 38.253C119.619 38.3248 119.655 38.3902 119.709 38.4402C120.609 40.0602 121.649 42.3302 121.359 44.1702C121.079 45.3099 120.487 46.3489 119.649 47.1702C115.549 42.2902 105.779 36.8202 99.2786 34.3702C91.6586 31.4602 82.0386 31.4502 79.4186 32.5402C79.6846 31.0034 80.2817 29.543 81.1686 28.2602ZM79.1686 30.1702C78.8523 31.1055 78.6312 32.0704 78.5086 33.0502C77.7386 33.3702 77.0486 34.6702 76.5086 36.7602C75.8586 39.5402 75.2886 41.9402 76.6786 44.2902C77.3064 45.3156 78.1837 46.1653 79.2286 46.7602C79.1086 47.7602 78.7986 51.4102 78.8286 52.9302L76.1986 52.8702H76.1286C75.9334 52.9088 75.7541 53.0048 75.6137 53.1459C75.4733 53.287 75.3783 53.4668 75.3407 53.6623C75.3031 53.8577 75.3247 54.06 75.4027 54.2431C75.4807 54.4262 75.6116 54.5819 75.7786 54.6902C75.7345 56.8402 75.8616 58.9903 76.1586 61.1202C76.3105 61.8869 76.671 62.5968 77.2002 63.172C77.7295 63.7471 78.4071 64.1652 79.1586 64.3802C78.8803 67.9853 79.6109 71.5967 81.2686 74.8102C82.8202 77.8125 85.4275 80.1349 88.5886 81.3302C89.5886 81.6602 89.5886 81.6202 89.6886 82.1602C89.6886 82.1602 90.1086 84.6802 90.2486 85.4402C87.2963 85.9285 84.6116 87.4444 82.6686 89.7202C71.045 91.9306 59.9332 96.281 49.8986 102.55C47.041 95.8769 45.5327 88.7039 45.4607 81.4449C45.3887 74.1859 46.7544 66.9844 49.4792 60.2558C52.2039 53.5272 56.2337 47.4045 61.3362 42.2409C66.4387 37.0773 72.5129 32.9748 79.2086 30.1702H79.1686ZM47.9986 13.7702C48.5886 13.7102 48.5186 12.8202 47.9986 12.8902C45.6586 12.9602 36.6886 13.2601 34.2686 13.2401C34.2022 13.2527 34.1422 13.288 34.099 13.34C34.0558 13.3921 34.0322 13.4575 34.0322 13.5251C34.0322 13.5928 34.0558 13.6582 34.099 13.7103C34.1422 13.7623 34.2022 13.7976 34.2686 13.8102C36.5086 13.9202 45.7186 14.0002 47.9986 13.7702ZM46.9986 16.1301C46.0886 16.1301 36.4986 16.8802 34.5786 16.9102C34.5017 16.9102 34.4279 16.9407 34.3735 16.9951C34.3192 17.0495 34.2886 17.1232 34.2886 17.2002C34.2886 17.2771 34.3192 17.3508 34.3735 17.4052C34.4279 17.4596 34.5017 17.4902 34.5786 17.4902C36.1386 17.4902 45.9086 17.2302 47.0986 17.0002C47.2053 16.9771 47.2997 16.9151 47.3633 16.8263C47.4269 16.7376 47.4552 16.6283 47.4427 16.5199C47.4302 16.4114 47.3779 16.3114 47.2958 16.2394C47.2137 16.1673 47.1078 16.1284 46.9986 16.1301ZM48.5886 20.0802C48.5886 20.0802 36.3186 20.5401 35.1486 20.5501C35.0722 20.5636 35.0029 20.6036 34.9531 20.663C34.9032 20.7224 34.8758 20.7976 34.8758 20.8752C34.8758 20.9527 34.9032 21.0279 34.9531 21.0873C35.0029 21.1467 35.0722 21.1867 35.1486 21.2002C39.6486 21.2002 44.1486 21.3702 48.6186 21.0102C48.73 20.9905 48.8305 20.9313 48.9018 20.8435C48.9731 20.7557 49.0103 20.6452 49.0067 20.5321C49.003 20.4191 48.9588 20.3112 48.882 20.2282C48.8052 20.1451 48.701 20.0926 48.5886 20.0802ZM115.999 169.22L115.259 168.84C115.233 168.825 115.203 168.817 115.174 168.817C115.144 168.817 115.114 168.825 115.089 168.84C114.12 169.663 113.342 170.686 112.809 171.84C112.794 171.876 112.793 171.917 112.806 171.953C112.819 171.99 112.845 172.021 112.879 172.04C113.593 172.411 114.384 172.61 115.189 172.62C117.849 172.62 119.529 170.34 121.029 168.22C122.329 166.36 123.959 164.05 123.149 161.81C122.871 161.062 122.39 160.408 121.759 159.92C121.733 159.896 121.699 159.883 121.664 159.883C121.628 159.883 121.594 159.896 121.569 159.92C120.536 160.704 119.717 161.736 119.189 162.92C119.172 162.944 119.163 162.972 119.163 163C119.163 163.029 119.172 163.057 119.189 163.08L119.999 163.85C119.063 165.905 117.7 167.736 115.999 169.22ZM113.509 167.9C112.827 168.672 112.215 169.501 111.679 170.38C111.419 170.95 112.179 171.23 112.379 170.88C112.938 170.018 113.552 169.193 114.219 168.41C114.429 168.19 113.999 167.57 113.509 167.9ZM118.549 162.19C118.611 162.192 118.674 162.18 118.731 162.154C118.788 162.128 118.839 162.089 118.879 162.04C119.441 161.18 120.055 160.355 120.719 159.57C120.939 159.34 120.509 158.73 119.999 159.07C119.324 159.839 118.718 160.665 118.189 161.54C118.15 161.605 118.129 161.678 118.128 161.753C118.127 161.829 118.145 161.903 118.182 161.969C118.218 162.034 118.271 162.089 118.336 162.128C118.4 162.167 118.473 162.189 118.549 162.19ZM148.379 149.39C148.442 149.391 148.505 149.377 148.562 149.349C148.62 149.321 148.67 149.281 148.709 149.23C148.747 149.18 148.774 149.121 148.786 149.058C148.798 148.996 148.796 148.931 148.779 148.87L149.009 141.87C149.009 141.33 149.059 140.66 148.439 140.31C147.819 139.96 49.9586 139.73 50.0686 139.73C50.0342 139.732 50.0008 139.742 49.9711 139.759C49.9415 139.776 49.9166 139.801 49.8986 139.83C49.5911 142.485 49.4675 145.158 49.5286 147.83C49.6456 148.072 49.8337 148.273 50.0679 148.405C50.302 148.537 50.5709 148.595 50.8386 148.57C52.2086 148.57 148.379 149.39 148.379 149.39ZM148.179 141.89C148.179 142.12 148.179 141.98 147.999 148.54C143.319 148.4 51.2386 147.68 50.5486 147.64C50.2386 147.53 50.2386 147.23 50.2586 146.76L50.4486 140.57C55.3586 140.71 147.549 140.95 147.929 140.98C148.309 141.01 148.209 141.42 148.179 141.89ZM58.7386 178.56C58.8553 178.56 58.9672 178.514 59.0497 178.431C59.1323 178.349 59.1786 178.237 59.1786 178.12C59.1786 178.003 59.1323 177.892 59.0497 177.809C58.9672 177.727 58.8553 177.68 58.7386 177.68C56.4986 177.81 47.4286 178.06 45.0086 178.03C44.9422 178.043 44.8822 178.078 44.839 178.13C44.7958 178.182 44.7722 178.248 44.7722 178.315C44.7722 178.383 44.7958 178.448 44.839 178.5C44.8822 178.552 44.9422 178.588 45.0086 178.6C47.2386 178.71 56.4286 178.78 58.7386 178.56ZM57.6886 180.92C56.7886 180.92 47.1986 181.67 45.2686 181.7C45.1917 181.7 45.1179 181.731 45.0635 181.785C45.0092 181.84 44.9786 181.913 44.9786 181.99C44.9786 182.067 45.0092 182.141 45.0635 182.195C45.1179 182.25 45.1917 182.28 45.2686 182.28C47.0786 182.28 56.6386 182.01 57.7886 181.79C57.8953 181.767 57.9897 181.705 58.0533 181.616C58.1169 181.528 58.1452 181.418 58.1327 181.31C58.1202 181.201 58.0679 181.101 57.9858 181.029C57.9037 180.957 57.7978 180.918 57.6886 180.92ZM59.3086 184.88C59.3086 184.88 47.0586 185.33 45.8586 185.34C45.7822 185.354 45.713 185.394 45.6631 185.453C45.6132 185.512 45.5858 185.588 45.5858 185.665C45.5858 185.743 45.6132 185.818 45.6631 185.877C45.713 185.937 45.7822 185.977 45.8586 185.99C50.3386 185.99 54.8586 186.16 59.3186 185.8C59.379 185.8 59.4387 185.787 59.4943 185.763C59.5498 185.74 59.6002 185.705 59.6424 185.662C59.6847 185.619 59.718 185.568 59.7405 185.512C59.763 185.456 59.7743 185.396 59.7736 185.335C59.773 185.275 59.7604 185.215 59.7367 185.16C59.713 185.104 59.6785 185.054 59.6353 185.011C59.5922 184.969 59.5411 184.936 59.485 184.913C59.429 184.891 59.369 184.88 59.3086 184.88ZM90.5886 178.56C90.7053 178.56 90.8172 178.514 90.8997 178.431C90.9823 178.349 91.0286 178.237 91.0286 178.12C91.0286 178.003 90.9823 177.892 90.8997 177.809C90.8172 177.727 90.7053 177.68 90.5886 177.68C88.3286 177.8 79.2686 178.06 76.8586 178.03C76.7922 178.043 76.7322 178.078 76.689 178.13C76.6459 178.182 76.6222 178.248 76.6222 178.315C76.6222 178.383 76.6459 178.448 76.689 178.5C76.7322 178.552 76.7922 178.588 76.8586 178.6C79.0986 178.71 88.2686 178.78 90.5886 178.56ZM89.5386 180.92C88.6386 180.92 79.0486 181.67 77.1186 181.7C77.0417 181.7 76.9679 181.731 76.9135 181.785C76.8592 181.84 76.8286 181.913 76.8286 181.99C76.8286 182.067 76.8592 182.141 76.9135 182.195C76.9679 182.25 77.0417 182.28 77.1186 182.28C78.9186 182.28 88.4786 182.01 89.6286 181.79C89.7344 181.767 89.8281 181.706 89.8917 181.618C89.9552 181.531 89.9842 181.423 89.973 181.315C89.9619 181.207 89.9114 181.107 89.8313 181.035C89.7511 180.962 89.6469 180.921 89.5386 180.92ZM91.1686 184.88C91.1686 184.88 78.9086 185.33 77.7186 185.34C77.6422 185.354 77.573 185.394 77.5231 185.453C77.4732 185.512 77.4458 185.588 77.4458 185.665C77.4458 185.743 77.4732 185.818 77.5231 185.877C77.573 185.937 77.6422 185.977 77.7186 185.99C82.1986 185.99 86.7186 186.16 91.1786 185.8C91.3006 185.799 91.4171 185.749 91.5024 185.662C91.5877 185.575 91.6349 185.457 91.6336 185.335C91.6323 185.213 91.5825 185.097 91.4953 185.011C91.4081 184.926 91.2906 184.879 91.1686 184.88ZM123.419 178.56C123.535 178.56 123.647 178.514 123.73 178.431C123.812 178.349 123.859 178.237 123.859 178.12C123.859 178.003 123.812 177.892 123.73 177.809C123.647 177.727 123.535 177.68 123.419 177.68C121.159 177.81 112.109 178.06 109.679 178.03C109.612 178.043 109.552 178.078 109.509 178.13C109.466 178.182 109.442 178.248 109.442 178.315C109.442 178.383 109.466 178.448 109.509 178.5C109.552 178.552 109.612 178.588 109.679 178.6C111.929 178.71 121.099 178.78 123.419 178.56ZM122.369 180.92C121.479 180.92 111.879 181.67 109.959 181.7C109.882 181.7 109.808 181.731 109.754 181.785C109.699 181.84 109.669 181.913 109.669 181.99C109.669 182.067 109.699 182.141 109.754 182.195C109.808 182.25 109.882 182.28 109.959 182.28C111.759 182.28 121.319 182.01 122.479 181.79C122.587 181.767 122.682 181.705 122.746 181.615C122.81 181.525 122.838 181.414 122.824 181.305C122.81 181.195 122.755 181.095 122.671 181.024C122.587 180.952 122.479 180.916 122.369 180.92ZM123.999 184.88C123.999 184.88 111.739 185.33 110.549 185.34C110.472 185.354 110.403 185.394 110.353 185.453C110.303 185.512 110.276 185.588 110.276 185.665C110.276 185.743 110.303 185.818 110.353 185.877C110.403 185.937 110.472 185.977 110.549 185.99C115.029 185.99 119.549 186.16 124.009 185.8C124.131 185.799 124.247 185.749 124.332 185.662C124.418 185.575 124.465 185.457 124.464 185.335C124.462 185.213 124.413 185.097 124.325 185.011C124.238 184.926 124.121 184.879 123.999 184.88ZM155.349 178.56C155.465 178.56 155.577 178.514 155.66 178.431C155.742 178.349 155.789 178.237 155.789 178.12C155.789 178.003 155.742 177.892 155.66 177.809C155.577 177.727 155.465 177.68 155.349 177.68C153.109 177.8 144.039 178.06 141.609 178.03C141.542 178.043 141.482 178.078 141.439 178.13C141.396 178.182 141.372 178.248 141.372 178.315C141.372 178.383 141.396 178.448 141.439 178.5C141.482 178.552 141.542 178.588 141.609 178.6C143.859 178.71 152.999 178.78 155.349 178.56ZM154.299 180.92C153.409 180.92 143.809 181.67 141.889 181.7C141.812 181.7 141.738 181.731 141.684 181.785C141.629 181.84 141.599 181.913 141.599 181.99C141.599 182.067 141.629 182.141 141.684 182.195C141.738 182.25 141.812 182.28 141.889 182.28C143.689 182.28 153.249 182.01 154.409 181.79C154.517 181.767 154.612 181.705 154.676 181.615C154.74 181.525 154.768 181.414 154.754 181.305C154.74 181.195 154.685 181.095 154.601 181.024C154.517 180.952 154.409 180.916 154.299 180.92ZM155.929 184.88C155.929 184.88 143.669 185.33 142.479 185.34C142.402 185.354 142.333 185.394 142.283 185.453C142.233 185.512 142.206 185.588 142.206 185.665C142.206 185.743 142.233 185.818 142.283 185.877C142.333 185.937 142.402 185.977 142.479 185.99C146.949 185.99 151.479 186.16 155.939 185.8C156.061 185.799 156.177 185.749 156.262 185.662C156.348 185.575 156.395 185.457 156.394 185.335C156.392 185.213 156.343 185.097 156.255 185.011C156.168 184.926 156.051 184.879 155.929 184.88ZM60.8086 173.05L58.4886 173C58.4886 171.82 58.4086 168.78 58.3686 167.84C58.67 167.588 58.8644 167.231 58.9127 166.841C58.961 166.452 58.8594 166.058 58.6286 165.74C58.5386 165.61 58.6286 165.64 55.7986 165.74V163.74C55.9745 163.491 56.0926 163.205 56.1445 162.904C56.1964 162.603 56.1807 162.294 56.0986 162C56.0873 161.956 56.0613 161.917 56.0249 161.89C55.9886 161.863 55.944 161.849 55.8986 161.85L52.3386 161.96C52.2786 161.2 52.0186 158.47 51.9186 158.29C51.8504 158.16 51.7364 158.06 51.5986 158.01C52.8386 156.22 50.8886 155.59 51.2686 154.67C51.4286 154.28 50.8486 154.01 50.6186 154.37C50.0563 155.123 49.6237 155.965 49.3386 156.86C49.3474 157.126 49.4213 157.385 49.5538 157.615C49.6863 157.845 49.8734 158.039 50.0986 158.18C49.9535 158.238 49.8311 158.341 49.7499 158.475C49.6687 158.608 49.6332 158.765 49.6486 158.92V162.03L46.7986 162.12C46.7575 162.121 46.7177 162.135 46.6853 162.16C46.6528 162.185 46.6294 162.22 46.6186 162.26C46.5086 162.581 46.482 162.925 46.5415 163.259C46.601 163.593 46.7445 163.907 46.9586 164.17C46.9586 164.74 47.0286 165.52 47.0886 166.08C44.2086 166.2 44.3186 166.16 44.2286 166.26C43.5086 167.12 43.0486 168.61 43.8986 169.26V172.89H42.2186C42.1364 172.89 42.0575 172.923 41.9994 172.981C41.9413 173.039 41.9086 173.118 41.9086 173.2C41.9086 173.282 41.9413 173.361 41.9994 173.419C42.0575 173.478 42.1364 173.51 42.2186 173.51C42.3286 173.51 60.6786 173.73 60.8486 173.71C60.9361 173.705 61.018 173.665 61.0761 173.599C61.1342 173.534 61.1639 173.448 61.1586 173.36C61.1533 173.273 61.1134 173.191 61.0478 173.133C60.9822 173.075 60.8961 173.045 60.8086 173.05ZM51.6186 162H50.3686V158.84C50.6928 158.742 51.0301 158.695 51.3686 158.7C51.3886 159.12 51.5686 161.35 51.6186 162ZM50.0786 156.8C50.2576 156.401 50.4683 156.016 50.7086 155.65C51.0386 156.29 51.5186 156.65 51.2386 157.28C51.1181 157.499 50.9739 157.703 50.8086 157.89C50.3686 157.58 49.9986 157.22 50.0786 156.78V156.8ZM49.8586 163.85C49.9932 164.134 50.2056 164.374 50.4711 164.542C50.7367 164.71 51.0444 164.799 51.3586 164.799C51.6728 164.799 51.9806 164.71 52.2461 164.542C52.5116 164.374 52.724 164.134 52.8586 163.85C53.1289 164.109 53.4627 164.291 53.8263 164.379C54.1898 164.467 54.5701 164.457 54.9286 164.35V165.82L47.7886 166.1C47.7886 165.61 47.7386 165.1 47.6986 164.64C48.0983 164.715 48.5108 164.679 48.8915 164.536C49.2722 164.393 49.6066 164.149 49.8586 163.83V163.85ZM44.6486 172.85V169.48C45.0969 169.514 45.5472 169.45 45.9684 169.293C46.3897 169.136 46.7718 168.889 47.0886 168.57C47.4555 168.899 47.9309 169.081 48.4236 169.081C48.9163 169.081 49.3917 168.899 49.7586 168.57C50.9186 169.84 52.6586 169.25 53.6186 167.84C53.8083 168.109 54.0563 168.332 54.344 168.492C54.6317 168.652 54.9518 168.745 55.2804 168.764C55.6091 168.783 55.9378 168.728 56.2422 168.603C56.5466 168.478 56.8188 168.285 57.0386 168.04C57.2504 168.096 57.4707 168.113 57.6886 168.09C57.6886 169.15 57.6886 171.83 57.7586 172.95C54.6886 172.93 46.6586 172.87 44.6486 172.87V172.85Z" fill="black"/>
<path d="M179.94 60.24C178.36 59.12 179.48 59.24 177.18 51.67C176.4 49.1 175.53 46.01 173.18 45.02C173.18 37.56 173.18 6.48003 173.23 5.42003C173.271 5.35299 173.293 5.27615 173.294 5.19752C173.296 5.11889 173.276 5.04134 173.237 4.97293C173.198 4.90452 173.142 4.84777 173.074 4.80856C173.006 4.76936 172.928 4.74915 172.85 4.75003C153.95 4.75003 36.4596 5.28003 26.0396 5.40003C25.9766 5.40133 25.9148 5.41749 25.8593 5.4472C25.8037 5.4769 25.7559 5.51931 25.7199 5.57097C25.6838 5.62263 25.6605 5.68208 25.6517 5.74448C25.643 5.80687 25.6491 5.87045 25.6696 5.93003C25.4196 19.08 25.0596 90.88 24.9696 118.26C19.6633 122.921 15.4965 128.737 12.7896 135.26C7.90961 147.19 7.61961 156.26 11.9396 162.09C14.7996 165.99 20.5096 170.37 25.0396 168.36C24.8996 187.42 24.8596 192.99 24.9696 194.6C25.0196 195.35 25.1096 195.24 25.2196 195.24C25.3296 195.24 166.29 194.98 172.54 194.91C172.618 194.91 172.695 194.888 172.762 194.848C172.829 194.807 172.883 194.749 172.92 194.68C172.97 194.58 173.19 149.99 173.36 138.16C174.579 138.127 175.775 137.812 176.854 137.242C177.933 136.671 178.865 135.86 179.58 134.87C182.028 131.805 184.047 128.421 185.58 124.81C187.84 118.86 189.47 114.57 190.42 107.92C192.52 93.27 189.37 77.27 183.04 64C181.91 61.61 182.07 61.75 179.94 60.24ZM21.9996 161.66C20.1196 160.79 18.4096 156.87 19.0996 153.49C19.6436 151.27 20.8756 149.278 22.6196 147.8C23.4162 147.01 24.2906 146.303 25.2296 145.69V149.14C24.481 149.654 23.8078 150.27 23.2296 150.97C23.1846 151.041 23.1675 151.126 23.1816 151.209C23.1956 151.292 23.2398 151.366 23.3056 151.419C23.3714 151.471 23.4543 151.497 23.5381 151.491C23.6219 151.486 23.7008 151.45 23.7596 151.39C24.7423 150.421 25.8731 149.614 27.1096 149C27.9796 148.61 28.1596 148.79 27.9496 149.6C27.7688 150.575 27.2901 151.469 26.5796 152.16C25.8703 152.731 25.0864 153.202 24.2496 153.56C23.7968 153.754 23.3674 153.999 22.9696 154.29C22.9168 154.343 22.8848 154.413 22.8797 154.488C22.8745 154.562 22.8965 154.636 22.9415 154.696C22.9866 154.756 23.0517 154.797 23.1248 154.812C23.198 154.828 23.2743 154.816 23.3396 154.78C24.1396 154.25 26.6496 153.47 28.0296 152.5C29.0296 151.81 29.1196 152.33 28.7796 153.36C28.0796 155.43 25.6496 156.5 24.0396 157.8C23.9837 157.856 23.9492 157.93 23.9422 158.01C23.9351 158.089 23.956 158.168 24.0011 158.233C24.0462 158.298 24.1128 158.346 24.1892 158.367C24.2656 158.388 24.3471 158.382 24.4196 158.35C24.8696 158.1 25.3196 157.79 25.9596 157.35C26.5996 156.91 28.4096 156 29.0696 156.35C29.1442 156.384 29.2073 156.439 29.2516 156.508C29.2959 156.578 29.3195 156.658 29.3196 156.74C29.4196 157.46 28.8196 158.16 28.2096 158.94C25.4096 162.52 23.0996 162.19 21.9996 161.66ZM172.15 194C163.45 194.05 32.5196 194.38 25.7096 194.46C25.7896 191.61 25.7096 173.59 25.7596 162.21C27.1187 161.177 28.3716 160.011 29.4996 158.73C29.7796 158.34 30.6496 156.99 29.9696 155.93C29.8178 155.703 29.6014 155.526 29.3484 155.423C29.0953 155.319 28.8172 155.294 28.5496 155.35C29.2395 154.633 29.6751 153.709 29.7896 152.72C29.7896 152.41 29.8796 151.72 29.2896 151.43C29.083 151.362 28.8636 151.344 28.6485 151.375C28.4334 151.406 28.2284 151.486 28.0496 151.61C28.1396 151.47 28.2096 151.33 28.2896 151.18C28.6496 150.47 29.1496 148.84 28.7496 148.24C28.1996 147.43 26.7996 148.1 25.9596 148.6C26.0196 55.2 26.4996 21.77 26.4496 6.18003C36.1196 6.18003 166.36 5.65003 172.45 5.61003C172.37 11.16 172.24 49.35 172.24 49.35C170.579 49.6231 168.989 50.2212 167.56 51.11C167.169 51.2987 166.842 51.5977 166.62 51.97C166.544 52.1006 166.497 52.2458 166.482 52.3959C166.467 52.546 166.484 52.6976 166.533 52.8406C166.581 52.9835 166.659 53.1145 166.762 53.2248C166.865 53.335 166.99 53.4221 167.13 53.48C166.72 53.7267 166.376 54.07 166.13 54.48C166.03 54.8684 166.076 55.28 166.261 55.6361C166.445 55.9921 166.755 56.2677 167.13 56.41C166.07 57.36 166.28 59.03 168.42 59.34C169.722 59.5229 171.048 59.4652 172.33 59.17C172.92 68 172.05 188.35 172.15 194ZM173.35 61.31C173.29 60.58 173.22 59.81 173.13 58.99C173.771 58.7956 174.393 58.5446 174.99 58.24C175.41 58.03 175.07 57.4 174.65 57.61C173.059 58.3496 171.312 58.6927 169.56 58.61C168.91 58.61 167.82 58.61 167.56 57.98C167.3 57.35 167.93 56.88 168.36 56.76C170.247 57.0424 172.174 56.6907 173.84 55.76C173.919 55.7176 173.979 55.6453 174.005 55.559C174.031 55.4728 174.022 55.3796 173.98 55.3C173.937 55.2205 173.865 55.161 173.779 55.1348C173.692 55.1085 173.599 55.1176 173.52 55.16C172.016 55.8823 170.333 56.1466 168.68 55.92C167.5 55.76 166.95 55.43 166.97 54.92C166.97 54.68 167.97 53.92 168.37 53.75C170.141 54.0014 171.938 54.0014 173.71 53.75C174.16 53.69 174.1 53 173.65 53.06C172.31 53.23 168.01 53.12 167.6 52.76C167.556 52.7319 167.521 52.6934 167.496 52.648C167.471 52.6025 167.458 52.5517 167.458 52.5C167.458 52.4484 167.471 52.3975 167.496 52.3521C167.521 52.3067 167.556 52.2682 167.6 52.24C168.66 51.14 172.44 50.03 173.45 49.87C173.529 49.8607 173.602 49.8202 173.651 49.7574C173.701 49.6946 173.724 49.6146 173.715 49.535C173.705 49.4555 173.665 49.3828 173.602 49.3331C173.539 49.2834 173.459 49.2607 173.38 49.27H173.21V45.86C175.01 46.93 175.71 49.38 176.27 51.36C178.79 60.15 177.35 59.57 179.92 61.3C180.33 61.5597 180.712 61.8613 181.06 62.2C178.51 63.78 175.62 63.2 173.35 61.34V61.31Z" fill="black"/>
<path d="M107.449 109.59C107.218 109.59 106.992 109.659 106.799 109.788C106.607 109.916 106.457 110.099 106.368 110.313C106.28 110.526 106.257 110.762 106.302 110.989C106.347 111.216 106.458 111.424 106.622 111.588C106.786 111.751 106.994 111.863 107.221 111.908C107.448 111.953 107.683 111.93 107.897 111.841C108.111 111.753 108.294 111.603 108.422 111.41C108.551 111.218 108.619 110.992 108.619 110.76C108.619 110.45 108.496 110.152 108.277 109.933C108.057 109.714 107.76 109.59 107.449 109.59ZM103.999 115.31C103.742 115.31 103.491 115.387 103.277 115.529C103.063 115.672 102.897 115.875 102.798 116.113C102.7 116.35 102.674 116.612 102.724 116.864C102.775 117.116 102.898 117.348 103.08 117.53C103.262 117.711 103.494 117.835 103.746 117.885C103.998 117.936 104.259 117.91 104.497 117.811C104.734 117.713 104.937 117.546 105.08 117.333C105.223 117.119 105.299 116.867 105.299 116.61C105.299 116.266 105.162 115.935 104.919 115.691C104.675 115.447 104.344 115.31 103.999 115.31ZM100.899 120.33C100.702 120.33 100.508 120.389 100.344 120.499C100.179 120.609 100.051 120.765 99.9755 120.948C99.8998 121.13 99.88 121.331 99.9186 121.525C99.9572 121.719 100.052 121.898 100.192 122.037C100.332 122.177 100.51 122.273 100.704 122.311C100.898 122.35 101.099 122.33 101.282 122.254C101.465 122.179 101.621 122.05 101.731 121.886C101.841 121.721 101.899 121.528 101.899 121.33C101.899 121.065 101.794 120.811 101.607 120.623C101.419 120.436 101.165 120.33 100.899 120.33Z" fill="black"/>
</svg>
